<svg id="Layer_2" data-name="Layer 2" xmlns="http://www.w3.org/2000/svg" viewBox="0 0 1200 1000"><defs><style>.cls-1{fill:#b0ce99;}.cls-2{fill:#ba6d40;}</style></defs><title>Beans Talk</title><path class="cls-1" d="M221.94,308.77c-4.79-14-8.93-20.12-18.28-31.5-1.42-1.72-3.6-4.26-6.38-4.17-3.69.11-7,4.76-8.42,8.5-1.6,4.25-.41,6.51-2,7.57-2.63,1.73-6.56-3.62-12.09-3.68-6.42-.08-13.33,6.93-14.49,12.27-1.23,5.6,3.35,11.86,11.89,18.85a12.8,12.8,0,0,0-1.66,3.38c-1.14,3.72.46,5.74-.79,7.36-1.77,2.29-5.29-1.33-10.14.49-3.49,1.31-6.88,5.14-8.61,9.35-6.17.62-11.55,2.31-12.58,5.61-1.58,5,8.38,9.44,7.72,18.63-.41,5.75-4.49,6.56-4.14,11.46.51,7,9.21,11.79,13.83,13.9a11.44,11.44,0,0,0-.17,6.61,15.57,15.57,0,0,0,3,14.53c.09.11.19.2.28.3a11.26,11.26,0,0,0-2.29,3.73c-1.8,5,.15,11.89,4.31,15.52.93.81,5.13,4.24,15.4,2.41,11.64-2.06,18.35-8.6,33.14-22.92a113.78,113.78,0,0,0,14.32-4.33c24.81-10.07,47.76-10.81,63.22-10.54l2.81.66c-4.87,10.76-7.24,12.49-7.65,19.85-.22,4-.43,19.38,11.71,29.81a34.74,34.74,0,0,0,32.54,6.67c10.74-3.51,8.82-10,22.08-16.15,11.51-5.36,24.43-5.8,30.55-6,10.78-.37,16.86,1.13,17.59-.92.94-2.69-9.13-6.24-19.93-18.36a62,62,0,0,1-10.5-15.32c-5.12-10.89-2.3-14.42-6.06-23.05-3.88-8.91-12.65-18.39-24.95-21.62-1.82-.48-17.84-4.45-28.86,4.6-6.91,5.67-5.09,10.91-12.07,29.67-9.87-9.19-20.73-19.38-32.43-30.49C225.77,317.17,223.77,314.13,221.94,308.77Z"/><path class="cls-1" d="M566.46,216c14-4.79,20.12-8.94,31.5-18.29,1.72-1.42,4.25-3.59,4.17-6.38-.11-3.68-4.76-7-8.5-8.41-4.25-1.61-6.51-.42-7.58-2.05-1.72-2.63,3.63-6.56,3.69-12.09.08-6.41-6.93-13.33-12.27-14.49-5.6-1.22-11.86,3.35-18.85,11.9a12.22,12.22,0,0,0-3.38-1.66c-3.72-1.14-5.74.46-7.36-.8-2.29-1.77,1.33-5.29-.49-10.14-1.31-3.49-5.14-6.88-9.35-8.61-.62-6.16-2.31-11.55-5.61-12.58-5-1.57-9.44,8.38-18.63,7.72-5.75-.41-6.56-4.49-11.46-4.14-7,.51-11.79,9.22-13.9,13.83a11.53,11.53,0,0,0-6.61-.17,15.6,15.6,0,0,0-14.53,3l-.3.29a11.22,11.22,0,0,0-3.73-2.3c-5-1.79-11.89.16-15.52,4.31-.81.93-4.24,5.13-2.42,15.41,2.07,11.64,8.61,18.35,22.93,33.13a113.78,113.78,0,0,0,4.33,14.32c10.07,24.81,10.81,47.76,10.54,63.22l-.66,2.81c-10.76-4.87-12.49-7.23-19.85-7.65-4-.22-19.38-.42-29.81,11.71a34.74,34.74,0,0,0-6.67,32.54c3.51,10.74,10,8.82,16.15,22.08,5.36,11.51,5.8,24.43,6,30.55.37,10.78-1.13,16.87.92,17.59,2.69.95,6.24-9.13,18.36-19.92a62,62,0,0,1,15.32-10.51c10.89-5.11,14.42-2.3,23-6.06,8.91-3.88,18.39-12.65,21.62-24.94.48-1.83,4.45-17.84-4.6-28.87-5.68-6.91-10.91-5.08-29.67-12.07,9.19-9.86,19.38-20.72,30.49-32.42C558.06,219.8,561.1,217.81,566.46,216Z"/><path class="cls-1" d="M657.69,586.15c4.79,14,8.93,20.12,18.28,31.5,1.42,1.72,3.6,4.26,6.38,4.17,3.69-.11,7-4.76,8.42-8.5,1.6-4.25.41-6.51,2-7.57,2.63-1.73,6.56,3.62,12.09,3.69,6.42.07,13.33-6.94,14.5-12.28,1.22-5.6-3.36-11.86-11.9-18.85a12.8,12.8,0,0,0,1.66-3.38c1.14-3.72-.46-5.74.79-7.36,1.78-2.29,5.29,1.34,10.15-.49,3.48-1.3,6.87-5.14,8.6-9.35,6.17-.62,11.55-2.31,12.58-5.61,1.58-5-8.38-9.44-7.72-18.63.41-5.74,4.49-6.56,4.14-11.46-.5-7-9.21-11.79-13.83-13.9a11.52,11.52,0,0,0,.18-6.61A15.6,15.6,0,0,0,721,487l-.28-.3A11.26,11.26,0,0,0,723,483c1.8-5-.15-11.89-4.31-15.52-.92-.81-5.13-4.23-15.4-2.41-11.64,2.06-18.35,8.6-33.14,22.92a113.18,113.18,0,0,0-14.31,4.33c-24.82,10.07-47.77,10.81-63.23,10.54l-2.81-.66c4.87-10.76,7.24-12.49,7.65-19.84.23-4,.43-19.39-11.7-29.82a34.75,34.75,0,0,0-32.54-6.67c-10.74,3.52-8.83,10-22.09,16.15-11.51,5.36-24.43,5.81-30.55,6-10.77.37-16.86-1.13-17.59.92-.94,2.69,9.13,6.24,19.93,18.36a62,62,0,0,1,10.5,15.32c5.12,10.89,2.3,14.42,6.06,23,3.89,8.91,12.65,18.39,24.95,21.62,1.82.48,17.84,4.45,28.86-4.6,6.92-5.67,5.09-10.91,12.07-29.67,9.87,9.19,20.73,19.38,32.43,30.49C653.86,577.75,655.86,580.79,657.69,586.15Z"/><path class="cls-1" d="M310.92,667.89c-14,4.79-20.12,8.93-31.5,18.28-1.73,1.42-4.26,3.6-4.18,6.39.12,3.68,4.77,7,8.5,8.41,4.26,1.6,6.51.41,7.58,2,1.72,2.63-3.62,6.56-3.69,12.09-.08,6.42,6.94,13.33,12.27,14.5,5.61,1.22,11.86-3.36,18.85-11.9a12.8,12.8,0,0,0,3.38,1.66c3.72,1.14,5.75-.46,7.37.79,2.29,1.78-1.34,5.3.48,10.15,1.31,3.48,5.14,6.87,9.35,8.6.62,6.17,2.31,11.55,5.61,12.58,5,1.58,9.45-8.38,18.63-7.72,5.75.42,6.56,4.5,11.46,4.14,7-.5,11.79-9.21,13.91-13.82a11.49,11.49,0,0,0,6.6.17,15.63,15.63,0,0,0,14.54-3l.29-.28a11.31,11.31,0,0,0,3.74,2.29c5,1.8,11.88-.15,15.52-4.31.81-.92,4.23-5.13,2.41-15.4-2.06-11.64-8.61-18.35-22.93-33.14a113.89,113.89,0,0,0-4.33-14.31c-10.07-24.82-10.81-47.77-10.54-63.22q.33-1.4.66-2.82c10.76,4.87,12.49,7.24,19.85,7.65,4,.23,19.38.43,29.81-11.7a34.75,34.75,0,0,0,6.67-32.54c-3.51-10.74-10-8.83-16.15-22.08-5.35-11.52-5.8-24.44-6-30.56-.38-10.77,1.13-16.86-.93-17.59-2.68-.94-6.23,9.14-18.35,19.93a61.89,61.89,0,0,1-15.33,10.5c-10.89,5.12-14.42,2.3-23,6.06-8.91,3.89-18.39,12.65-21.62,25-.48,1.83-4.45,17.84,4.6,28.86,5.68,6.92,10.91,5.09,29.67,12.07-9.18,9.87-19.38,20.73-30.49,32.43C319.31,664.06,316.27,666.06,310.92,667.89Z"/><path class="cls-1" d="M393.92,154.88c-3.28-2.6-9.57-1-13.53,1.22-4.51,2.53-5.13,5.36-7.33,5.09-3.54-.43-3.05-7.95-7.8-12.05-5.2-4.5-15.4-3.8-21.59.05a17.49,17.49,0,0,0-4.75,4.4,13.72,13.72,0,0,0-1.26-5.12c-2.37-5-8.45-9.1-13.6-8.18-3.73.67-6.25,3.84-7.83,6.51a34.68,34.68,0,0,0-1.85,3.39,19,19,0,0,0-1.67,5,9.67,9.67,0,0,0-1.8-.85c-5-1.78-12.82,0-17.59,4a13.48,13.48,0,0,0-3,3.68,21.16,21.16,0,0,0-3.14,11c-5.79-1.27-13.68-.28-16.87,4.25a7.07,7.07,0,0,0-.44.73h0c-4,5.65,2.45,12.35-2,20.19l0,.05c-2.48,3.72-5.35,3.21-9.55,9.18-.63.91-1.43,2-2.19,3.31-1.75,2.75-3.49,6.34-2.88,10a10.2,10.2,0,0,0,1.36,3.61,20.41,20.41,0,0,0-5.41.64,11.65,11.65,0,0,0-2.84,1.18c-5.22,3-8.57,10.44-7.62,16.64.22,1.39,1.36,7.44,11.63,13.38,12.74,7.37,24.26,5.74,52.63,3.85l9.6-.61c-.08.55-.15,1.06-.22,1.53-1,6.81-1.45,10.22-.51,14.09,1.68,7,4.89,5.74,10.62,17.35,0,0,5.8,11.76,9.71,16.62,1,1.26.49.5,7.34,8.33,5.2,5.93,5.9,6.82,6.51,7.63,3.31,4.4,3.79,6.15,6.83,10.8a95.79,95.79,0,0,0,8.25,10.66c6.52,7.65,8,7.76,15,15.37,6.47,7,5,6.66,14,16.73,7.55,8.51,8.35,8.49,11.39,13,3.86,5.74,4.14,8.13,8,11.57,3.42,3,5.05,2.81,8.53,6.38,2.48,2.56,2.84,3.89,5.81,8.25,3.24,4.75,8.27,12.12,10.11,11.41,2.57-1-1.85-17.28-2.31-18.95a151.3,151.3,0,0,0-5.72-16.3c-5-12.62-5.8-12.52-6.68-17-1.62-8.26,1.1-9.41.53-19.46-.15-2.66-.38-3.32-5.26-22.16-4.4-17-5-19.36-5.71-23-1.72-8.6-1.23-8.62-2.72-14.51-2.12-8.39-3.51-9.93-5.84-18.81s-1.2-8.24-3.14-14.86a84.88,84.88,0,0,0-8.83-19.83c-4.13-7.07-6.2-10.61-10.41-14a29.19,29.19,0,0,0-9.58-5.17c1-.48,2-1,3-1.59a44.76,44.76,0,0,0,16-16.3c.7-1.12,1.31-2.16,1.86-3.1,6.81-11.68,6.93-21.38,7.17-40.77C396.45,160.64,396.41,156.84,393.92,154.88Z"/><path class="cls-1" d="M715,398c2.59-3.28,1-9.57-1.23-13.53-2.52-4.51-5.36-5.13-5.09-7.33.43-3.55,7.95-3.05,12.06-7.8,4.49-5.21,3.79-15.4-.06-21.59a17.45,17.45,0,0,0-4.39-4.75,13.77,13.77,0,0,0,5.12-1.26c5-2.38,9.09-8.45,8.17-13.6-.67-3.73-3.83-6.25-6.51-7.83a30.84,30.84,0,0,0-3.38-1.85,18.56,18.56,0,0,0-5-1.67,9.68,9.68,0,0,0,.86-1.8c1.78-5,0-12.82-4-17.59a13.34,13.34,0,0,0-3.67-3,21.3,21.3,0,0,0-11-3.13c1.26-5.8.28-13.68-4.26-16.87a8,8,0,0,0-.73-.45h0c-5.64-4-12.35,2.45-20.18-2l-.06,0c-3.71-2.48-3.21-5.35-9.18-9.55-.9-.63-2-1.43-3.3-2.19-2.76-1.75-6.35-3.5-10-2.88a10.25,10.25,0,0,0-3.62,1.36,20.38,20.38,0,0,0-.63-5.41,12.06,12.06,0,0,0-1.18-2.84c-3-5.22-10.44-8.57-16.65-7.62-1.38.21-7.43,1.36-13.37,11.63-7.38,12.74-5.75,24.26-3.86,52.63.24,3.49.44,6.68.61,9.6l-1.53-.22c-6.81-1-10.22-1.45-14.08-.52-7,1.69-5.74,4.9-17.36,10.63,0,0-11.75,5.8-16.61,9.71-1.27,1-.51.49-8.33,7.34-5.94,5.2-6.83,5.9-7.63,6.51-4.4,3.31-6.16,3.79-10.81,6.83a96.72,96.72,0,0,0-10.66,8.25c-7.64,6.52-7.76,8-15.37,15-7,6.48-6.66,5.05-16.72,14-8.52,7.56-8.49,8.36-13,11.4-5.73,3.85-8.12,4.14-11.56,8-3,3.42-2.81,5.05-6.39,8.52-2.55,2.49-3.88,2.85-8.25,5.82-4.75,3.24-12.12,8.27-11.41,10.11,1,2.57,17.28-1.85,19-2.31a152.83,152.83,0,0,0,16.3-5.72c12.62-5,12.51-5.8,17-6.68,8.26-1.62,9.41,1.1,19.46.53,2.66-.15,3.31-.38,22.15-5.26,17-4.4,19.37-5,23-5.71,8.6-1.72,8.63-1.24,14.51-2.72,8.4-2.12,9.94-3.51,18.81-5.84s8.25-1.2,14.86-3.14a85,85,0,0,0,19.84-8.83c7.07-4.13,10.6-6.2,14-10.42a29.15,29.15,0,0,0,5.17-9.58c.47,1,1,2,1.58,3a44.7,44.7,0,0,0,16.31,16c1.11.7,2.16,1.31,3.1,1.86,11.67,6.81,21.37,6.93,40.77,7.16C709.28,400.57,713.07,400.53,715,398Z"/><path class="cls-1" d="M481.66,722.38c3.28,2.6,9.58,1,13.53-1.22,4.52-2.53,5.13-5.36,7.33-5.1,3.55.43,3.05,8,7.81,12.06,5.2,4.49,15.39,3.8,21.58,0a17.5,17.5,0,0,0,4.75-4.4,14,14,0,0,0,1.26,5.12c2.38,5,8.46,9.1,13.6,8.17,3.73-.66,6.25-3.83,7.83-6.5a30.85,30.85,0,0,0,1.85-3.39,18.87,18.87,0,0,0,1.68-5,8.74,8.74,0,0,0,1.79.86c5,1.78,12.83,0,17.59-4a13.26,13.26,0,0,0,3-3.68,21.26,21.26,0,0,0,3.13-11c5.8,1.27,13.68.28,16.87-4.25a7.2,7.2,0,0,0,.45-.73h0c4-5.65-2.45-12.35,2-20.19l0-.05c2.48-3.72,5.35-3.21,9.55-9.19.64-.9,1.44-2,2.2-3.3,1.74-2.75,3.49-6.34,2.87-10A10.2,10.2,0,0,0,621,653a20.48,20.48,0,0,0,5.42-.64,11.75,11.75,0,0,0,2.83-1.18c5.23-3,8.57-10.44,7.62-16.65-.21-1.38-1.36-7.43-11.62-13.37-12.75-7.37-24.27-5.74-52.64-3.85l-9.6.61c.09-.55.16-1.07.22-1.53,1-6.82,1.45-10.22.52-14.09-1.69-7-4.9-5.74-10.62-17.35,0,0-5.81-11.76-9.72-16.62-1-1.26-.49-.5-7.34-8.33-5.2-5.93-5.9-6.82-6.5-7.63-3.32-4.4-3.8-6.15-6.84-10.8a95.79,95.79,0,0,0-8.25-10.66c-6.51-7.65-8-7.77-15-15.37-6.47-7-5-6.66-14-16.73-7.55-8.51-8.36-8.49-11.39-13-3.86-5.74-4.14-8.13-8-11.57-3.43-3-5-2.81-8.53-6.38-2.49-2.56-2.85-3.89-5.82-8.25-3.24-4.75-8.26-12.12-10.11-11.41-2.56,1,1.85,17.27,2.31,18.95a152.06,152.06,0,0,0,5.72,16.3c4.95,12.62,5.8,12.52,6.68,17,1.63,8.26-1.09,9.41-.53,19.46.15,2.66.38,3.32,5.27,22.16,4.4,17,5,19.36,5.7,23,1.73,8.61,1.24,8.63,2.72,14.52,2.12,8.39,3.52,9.93,5.84,18.81s1.21,8.24,3.14,14.86a85.5,85.5,0,0,0,8.83,19.83c4.13,7.07,6.2,10.61,10.42,14a29.27,29.27,0,0,0,9.58,5.17c-1,.48-2,1-3,1.59a44.77,44.77,0,0,0-16,16.3c-.69,1.12-1.3,2.16-1.85,3.1-6.82,11.68-6.94,21.38-7.17,40.77C479.14,716.62,479.18,720.42,481.66,722.38Z"/><path class="cls-1" d="M157.87,484.82c-2.6,3.28-1,9.58,1.22,13.53,2.53,4.52,5.36,5.13,5.09,7.33-.43,3.55-8,3.05-12.06,7.81-4.49,5.2-3.79,15.39.06,21.58a17.34,17.34,0,0,0,4.4,4.75,13.87,13.87,0,0,0-5.12,1.26c-5,2.38-9.1,8.45-8.18,13.6.67,3.73,3.84,6.25,6.51,7.83a31.79,31.79,0,0,0,3.38,1.85,19,19,0,0,0,5,1.68,9.29,9.29,0,0,0-.86,1.79c-1.78,5,0,12.83,4,17.59a13.45,13.45,0,0,0,3.68,3,21.23,21.23,0,0,0,11,3.13c-1.27,5.8-.28,13.68,4.25,16.87a7.2,7.2,0,0,0,.73.45h0c5.64,4,12.35-2.44,20.19,2l.05,0c3.72,2.48,3.21,5.35,9.18,9.55.91.64,2,1.44,3.31,2.2,2.75,1.74,6.34,3.49,10,2.87a10.25,10.25,0,0,0,3.62-1.36,20.08,20.08,0,0,0,.64,5.42,12.12,12.12,0,0,0,1.17,2.83c3,5.23,10.45,8.57,16.65,7.62,1.38-.21,7.44-1.36,13.38-11.63,7.37-12.74,5.74-24.26,3.85-52.63-.23-3.49-.43-6.68-.61-9.6l1.53.22c6.81,1,10.22,1.45,14.09.52,7-1.69,5.74-4.9,17.35-10.62,0,0,11.76-5.81,16.62-9.72,1.26-1,.5-.49,8.32-7.34,5.94-5.2,6.83-5.9,7.64-6.5,4.4-3.32,6.15-3.8,10.8-6.84a95.79,95.79,0,0,0,10.66-8.25c7.65-6.51,7.76-8,15.37-15,7-6.47,6.66-5,16.73-14,8.51-7.56,8.49-8.36,13-11.39,5.74-3.86,8.12-4.14,11.57-8,3-3.43,2.81-5.05,6.38-8.53,2.56-2.49,3.89-2.85,8.25-5.82,4.75-3.24,12.12-8.26,11.41-10.11-1-2.56-17.28,1.85-19,2.31a151.94,151.94,0,0,0-16.29,5.72c-12.63,4.95-12.52,5.8-17,6.68-8.26,1.63-9.4-1.09-19.45-.53-2.67.15-3.32.38-22.16,5.27-17,4.39-19.36,5-23.05,5.7-8.6,1.73-8.62,1.24-14.51,2.72-8.39,2.12-9.94,3.52-18.81,5.84s-8.24,1.21-14.86,3.14a85.3,85.3,0,0,0-19.83,8.83c-7.07,4.13-10.61,6.2-14,10.42a29.07,29.07,0,0,0-5.17,9.58c-.48-1-1-2-1.59-3a44.85,44.85,0,0,0-16.3-16c-1.12-.69-2.16-1.3-3.11-1.85-11.67-6.82-21.37-6.94-40.76-7.17C163.63,482.3,159.83,482.34,157.87,484.82Z"/><path class="cls-2" d="M477.49,407.81c19.84-27.83,21.26-57.48,10.33-89-8.29-21.86-23.56-37.07-46.12-43.73-19.74-6.42-40-8.1-60.54-6.48-47.57,3.28-95.54,7.54-143.08,11.29-7,.55-7,.55-6.47,7.07l23.56,298.74c.59,7.46.59,7.46,8.05,6.87l128.16-10.11c9.79-.78,20.08-1.12,30.18-3.79,11.51-2.78,23.05-5.1,34.41-9.75,36.75-15.56,48.38-46.49,46-82-.4-5.12-1.27-10.21-2.14-15.3-2.8-17.6-9.17-33-23.64-44.09-3-2.58-7.36-4.11-10.42-7.15C469.69,415.93,474.09,412.3,477.49,407.81Zm-12.76-90.44c1.39-.11,2.33-.18,2.87.72a1.72,1.72,0,0,1-1.72,2,2.57,2.57,0,0,1-2.44-1.22C462.82,317.06,464.8,318.31,464.73,317.37Zm-7.27-8.8c2.48,1.68,3.52,3,2.28,5a1.72,1.72,0,0,1-1.37.57C456.86,312.84,456.72,311,457.46,308.57ZM411.52,285c.94-.07,1.44.36,1.48.83a2.47,2.47,0,0,1-1.61,3.4c-.9.54-1.86.15-1.94-.78A3.13,3.13,0,0,1,411.52,285Zm-15.14,27.93a2.41,2.41,0,0,1,1.14-3.37,2,2,0,0,1,2.9,1.17,56.37,56.37,0,0,1,2.85,6.34c.15,1.87-.21,3.3-1.11,3.84-1.86.15-3.33-.67-3.44-2.07C399,316,397.46,314.71,396.38,312.92Zm3.36-22.78c-.86,1-5.38-2.85-4.05,2.2.69,2.76.91,5.55,1.6,8.31.07.94.14,1.87-1.22,2.44s-1.94-.78-2.05-2.18l-2.61-15.27C397.86,284.19,397.86,284.19,399.74,290.14Zm-19.27-6.45a4.69,4.69,0,0,1,1.68-2.48,2.57,2.57,0,0,1,2.44,1.22c.58,1.36,2.12,3.11,1.73,4.08-1.5,4.81.7,8.86,2,13.91-2.3.65-4.23-.14-4.27-.6C383.65,294.23,379.52,289.39,380.47,283.69Zm-38.44,18c5.52-1.37,7.22,2.25,7.94,5.47s-1,5.7-3.14,7.75a3.53,3.53,0,0,1-3.77-.17c-1-.86-.57-1.36.29-2.37C346.67,307,346.67,307,342,301.73Zm-15.18,9.64a9.36,9.36,0,0,1,.31,9.82c-2.12-3.11-1.92-6.41-4-8.6-.58-1.36-.22-2.79,1.17-2.9C325.7,308.65,326.27,310,326.85,311.37Zm-7.69-26.13c.4-1-.18-2.33.75-2.4,1.83-.61,2.41.75,3,2.11l.59,7.46a32.37,32.37,0,0,1,1.41,6c.15,1.87-.64,3.81-2.54,3.49-2.33.18-1.54-1.76-1.19-3.19C321.73,294,319.07,289.94,319.16,285.24ZM308,464.79c-.24,2.84,0,6.1-.23,8.93a3,3,0,0,1-2.07,3.45c-1.87.14-2.48-1.68-3.06-3a2.86,2.86,0,0,1-.68-2.76c2.07-3.45.81-7.57,2.88-11C307.71,461.07,308.32,462.89,308,464.79Zm1.17,26.64c-1.79,1.08-3.26.26-4.74-.56-1-.86-1.54-1.76-.72-3.23.39-1,1.86-.14,2.37.28C307.51,488.28,309.45,489.07,309.17,491.43ZM276.63,298.92c.93-.08,2.37.28,2.48,1.68.14,1.86-1.18,2.9-3.08,2.59-.93.07-2.37-.29-2.48-1.69C273.37,299.17,275.27,299.49,276.63,298.92Zm-15.51-12.38c2.9,1.18,3.05,3,2.34,5.91C260.51,290.81,260.37,289,261.12,286.54ZM263.58,300c1,.39,1,.39,1.43.35,1.62,2.69,1.31,4.59-.38,7.07-.89.54-1.39.11-1.9-.32C261.11,304.36,261.9,302.42,263.58,300Zm-15.93,47.68c2.12,3.11,1.41,6,2.56,8.71C247.69,354.19,244.71,352.08,247.65,347.63Zm1.41,65.54c-.22-2.8-.9-5.56.31-8,2.37.29,2.52,2.15,2.66,4,.52,6.53,1.5,13,1.51,19.11.38,10.76,2.59,20.9,4.79,31,1.63,8.79-.46,17.86,4.39,25.92-3.21,6.82,2.79,11.5,2.83,18.06-.45,6.14,1.43,12.08,2.37,18.11.11,1.39.69,2.76-.67,3.33-1.83.61-2.41-.75-2.95-1.64a6,6,0,0,1-2.3-5.45c.64-3.8-1-6.95-2.71-10.57-1.73-4.08-4-8.6-1-13a3.55,3.55,0,0,0-.76-3.69c-3.09-3.51-2.49-7.78-2.82-12C253,456.48,250.76,434.61,249.06,413.17Zm24.6,163.13c-1.79,1.08-2.84-.25-3.41-1.61-3.31-6.3-7.05-12.1-6.71-19.63.25-2.84,0-6.1-2.56-8.71a5.08,5.08,0,0,1-.41-5.13,7.17,7.17,0,0,0-.58-7.46,2.83,2.83,0,0,1-.3-3.72c0-.47.86-1,1.32-1,.9-.53,1.4-.11,1.48.83C263.84,541,271.56,549.74,272,561c.11,1.39,1.19,3.18.79,4.15-1.14,3.38.88,5.09,2,7.35C275.37,574.29,275,575.72,273.66,576.3ZM250.05,294.92a3.14,3.14,0,0,1,1.11-3.84l1.86-.15a2.07,2.07,0,0,1,1.19,3.19c-1.64,2.94,2.27,5,2.1,8.74C252.36,300.36,251.67,297.6,250.05,294.92Zm16.42,35.75c-1.3-4.59-3.92-8.13-4.25-12.33L262,316c-.14-1.86.18-3.76,2.51-3.95,1.9.32,2,2.19,1.72,4.09-1.49,4.81,1.64,8.78,2.93,13.37.55.89.62,1.82-.78,1.93C267.51,332,266.55,331.6,266.47,330.67ZM293,578.05c-.93.08-1.94-.78-1.54-1.75-.08-.93.78-1.94,1.75-1.54a1.23,1.23,0,0,1,1.51,1.28C294.35,577,294,578,293,578.05ZM280.24,350.69a4.76,4.76,0,0,1-2.11,3c-1.82.61-2.83-.25-3.87-1.58-2.12-3.11-3.35-6.77-4.65-11.35,6.49-1,7-1,6.43,4.18-.32,1.9-.21,3.3,1.69,3.62C279.17,348.9,280.6,349.25,280.24,350.69Zm-4.13-40.48c-.54-.89.36-1.43,1.76-1.54a1.49,1.49,0,0,1,1.51,1.29c0,.46-.86,1-1.33,1A1.19,1.19,0,0,1,276.11,310.21Zm23.83,248.54c-.89.54-1.43-.36-1.47-.82-.69-2.76-1.34-5.06-2-7.81a3.57,3.57,0,0,0,1.82-.62,15.77,15.77,0,0,1,3,7.74A1.24,1.24,0,0,1,299.94,558.75Zm-6.72-192.21c-.57,4.74.7,8.86,1.06,13.52C290.19,375.69,291.22,370.92,293.22,366.54Zm3.33,36.32c-2.12-3.12-3.31-6.3-1.78-10.65,7,5.55,4.73,12.29,5.24,18.82a4.24,4.24,0,0,1-.28,2.36c-.82,1.48,1.69,3.62-1,5.24l-1-.39q-3.07-3.28-1.95-6.88c.42-.51.39-1,.85-1C299.29,407.8,298.64,405.51,296.55,402.86Zm16.16,103.77c-4.23-.14-6.49,1-9.36.27C307.25,502.84,307.25,502.84,312.71,506.63Zm.23,8.89c-.39,1-1.25,2-2.22,1.58a2.91,2.91,0,0,1-1.19-3.19c.43-.5.83-1.47,1.33-1A2.57,2.57,0,0,1,312.94,515.52Zm-2.41,28.8c-1.59-2.22.24-2.84,1.1-3.84,2.57-3,3.29-5.89,1.13-9.47-1.55-1.76-2.16-3.58.49-5.67,3.16,4.44,4,9.53,5.84,14.55.65,2.29-.64,3.8-3,4C314.25,544,312.46,545.1,310.53,544.32Zm13,9.76c.18,2.33-.6,4.27-3.4,4.49-3.26.25-4.3-1.07-4.71-6.2.32-1.9-.87-5.09,2.86-5.38C321,546.77,323.66,550.31,323.49,554.08ZM351,575.83c-1.33,1-2.41-.75-3.34-.68-6.67-1.35-8.9-5.86-9-12.42a19.7,19.7,0,0,0-2.42-6.85c-1.22-3.65-1.22-3.65.7-9,3.09,3.51,3,8.2,4.65,11.35,3.16,4.44,3.18,10.54,8.56,13.4C351.21,572.53,352.28,574.32,351,575.83Zm57.47-38.3c-1.4.11-1-1.33-1.62-2.69,0-.47.36-1.43.82-1.47,1.4-.11,1.94.78,2.05,2.18C410.26,536.45,409.87,537.42,408.47,537.53Zm6.37,33.26c-.89.54-1.47-.82-1.54-1.76.21-3.29-2.85-6.34-.42-11.22,1.77,4.55,2.92,7.28,3.64,10.5C417.06,569.21,416.24,570.68,414.84,570.79Zm11.37-16.38c-2.4-.74-2.58-3.07-3.16-4.43s-.65-2.3.75-2.41a1.71,1.71,0,0,1,2.4.75C428.21,550,428.4,552.37,426.21,554.41Zm.15-15.95c.54.89-.35,1.44-1.72,2-3.16-4.44-3.1-9.6-3-14.3-.07-.93.36-1.43,1.25-2,.94-.08,1.47.82,2,1.71.51.43,1,1.33.62,1.83C424.41,531.58,425.6,534.77,426.36,538.46Zm4.21-47.69c-.54,16.92-8.27,26-29.09,29.49-12.47,2.39-25.13,2.45-37.71,3.44L327,526.61c-5.13.4-5.59.44-6-4.69-1.28-16.31-2.14-33.12-3.9-49.4-.29-3.73,1-5.24,4.73-5.53l38.68-3.05c11.18-.88,21.94-1.26,33.09-2.61,6.49-1,12.69.4,18.93,2.26C426,468.15,430.83,476.21,430.57,490.77Zm-99.62-62a3.51,3.51,0,0,1,1.94.79c.69,2.76-1.57,3.87-3.86,4.52C327.87,431.34,328.7,429.87,331,428.75Zm9.8,5.32c.9-.54,2.18-2,3.69-.76,1.12,2.26-.67,3.34-2,3.91-1.33,1-3.58,2.16-4.66.37C336.63,435.34,339.39,434.65,340.75,434.07Zm78-4.27c1.37,5.52,2.74,11,6,16.41,2.2,4.05,1.6,8.31,1.53,13.48-3.91-2-5.56-5.19-5.75-7.52,0-6.1-3.71-11.43-3.72-17.53-.26-3.26-1.92-6.41-4.11-10.46C416.93,424.78,418,427,418.73,429.8Zm-2.41-18.57c2.63,3.54,3.32,6.3,3.22,11C416.88,418.22,415.3,416,416.32,411.23Zm-3.45-8.17c-3,4-6.44,7.54-12.68,5.69-1.94-.78-4.23-.13-6.57.05l-76,6c-3.69.76-5.2-.52-5.53-4.72-.49-12.15-1.95-24.7-2.94-37.28-1-12.12-1.45-24.27-2.87-36.35-.29-3.73,1-5.24,4.72-5.54l64.78-5.11c12.16-.49,23.6,1.89,34.05,9.51,5.49,4.26,9.66,9.55,11.11,16C424.74,369.3,423.81,387.19,412.87,403.06Zm36.25,150.49c0,.46-.35,1.43-1.32,1a1.24,1.24,0,0,1-1.51-1.29,10.11,10.11,0,0,1,1.2-8.54C449.61,547.88,449.37,550.71,449.12,553.55ZM429.06,305.18c-1.51-1.29-2-1.25-2-1.72-1.08-1.79.53-5.2-2.81-5.87-3.84-1.1-.6,4.27-4.33,4.56.21-3.3-.51-6.52.2-9.39,1.21-2.44,5-2.27,7.67-3.89A32.42,32.42,0,0,1,429.06,305.18Zm5.81,2.36a2,2,0,0,1,1.72-2c1.9.32,2.91,1.18,2.59,3.08,0,.47.15,1.87-1.25,2C436,310.26,435.45,308.9,434.87,307.54Zm3.9,13.76c.47,0,.54.89,1.05,1.32-.36,1.44-.75,2.41-2.11,3a10.69,10.69,0,0,1-.62-1.83C437,322.38,437.38,321.41,438.77,321.3Zm9.56,8.15c.9,5.56,3.14,10.07,3.58,15.67-2.38-6.38-8-6.41-13.28-7.87C443.25,336.42,447.37,335.16,448.33,329.45Zm-5.68,29.06c-1-1.33-1.66-3.15-.37-4.66.43-.51,1.36-.58,1.79-1.08a32,32,0,0,0,4.81,1.49c1.9.32,4.19-.33,3.91,2,.22,2.8-2.54,3.48-4.33,4.56C446.2,362,444.19,360.26,442.65,358.51Zm16.57,186.27c-1.69-3.62-.52-6.53-1.28-10.22C463.4,538.35,463.4,538.35,459.22,544.78Zm2.69-19.44a4.47,4.47,0,0,1-2,4.38.89.89,0,0,1-1.43-.36,5,5,0,0,1,0-5.63c.85-1,1.25-2,2.65-2.08C462.15,522.51,461.79,523.94,461.91,525.34ZM458.24,467c-.82,1.47.26,3.26-1.5,4.81-2.4-.75-3-2.58-3.62-4.41-.15-1.86.67-3.33,2.42-4.88l1.4-.11C458.92,463.68,458.6,465.57,458.24,467Zm-1.6-32.23c-.9.54-1.9-.32-2-1.25a3.12,3.12,0,0,1,2.07-3.45c.94-.07,1.91.32,1.94.79C458.82,432.73,458.5,434.63,456.64,434.78Zm-3.2-40.55c-.93.08-2.8.22-3-2.11-.15-1.86,1.6-3.41,3.43-4,2.26-1.12,2,1.25,2.95,1.65C457.06,392.54,455.77,394.05,453.44,394.23Zm.8-13.66c-.47,0-1-.39-1.44-.35-1.19-3.19-2.84-6.35-4-9.53a3,3,0,0,1,2.5-3.95c2.33-.19,1.54,1.75,1.65,3.15-.67,3.33,2.27,5,2.92,7.27C456.46,379,456.1,380.42,454.24,380.57Zm4.63-30.38a2,2,0,0,1,3.38,1.14c-.43.51-.9.54-1.83.62S459,351.13,458.87,350.19Zm6.54,23.4a2,2,0,0,1-1.62-2.68,1.61,1.61,0,0,1,.39-1,3.15,3.15,0,0,1,2.09,2.65Zm-1.59-43.95a2.57,2.57,0,0,1-2.09-2.65c.36-1.44.75-2.4,2.15-2.51s2,1.25,2.05,2.18C465.57,328.09,465.22,329.53,463.82,329.64Zm3.2,4.9c.35-1.43.75-2.4,2.61-2.55,1.47.82,1.12,2.26.72,3.23-.82,1.47,1.34,5-2,4.38C465.49,338.89,466.7,336.45,467,334.54Z"/><path class="cls-2" d="M545.25,412.27a57.06,57.06,0,0,0,31.11,10.26,143.3,143.3,0,0,0,47.75-5.12,42.51,42.51,0,0,0,25.21-19.85c1.63-3.37,1.86-3.93-1-6.14-4.66-4.23-9.08-8.75-14.23-12.4a24.88,24.88,0,0,1-6.39-5.45,3.83,3.83,0,0,0-1,.89c-4.76,8.22-11.39,13.35-21,15.45a66.69,66.69,0,0,1-19.34,1.8c-6.24-.32-12.31-1.73-17-6.77-4.11-4-5.61-9.3-7.11-14.59-1.45-4.76-1.18-4.78,3.66-5.16L644.66,359c1.63.14,2.11-.71,2.25-2.34.28-3.27.05-6.23.33-9.5a168.22,168.22,0,0,0-.63-28.62,87.48,87.48,0,0,0-3.35-18.41c-5.37-16.62-16-27.95-33.38-32.26-4.14-1-8.22-1.25-12-1.76a91.46,91.46,0,0,0-17.08-.54c-8.09.37-15.53,2-23.22,4a52.84,52.84,0,0,0-26.63,15.63c-7.21,8.14-10.48,18.14-12.09,28.55-1.77,11.77-.59,23.31.07,35.16a140.42,140.42,0,0,0,6.81,34.9C529.56,395.11,535.23,405.21,545.25,412.27Zm79.62-16c1.35-.11,1.19,1.26,1.52,2s.13,1.61-.95,1.7c-.78.33-1.12-.45-1.18-1.26S623.84,396.87,624.87,396.25Zm-5.9,7.5c.56.22,1.12.45,1.16,1,.07.8-.14,1.63-1,1.43-.53,0-.84-.48-.91-1.28C618.21,404.35,618.46,404.06,619,403.75Zm-11.62.1a1,1,0,0,1,1.39.43,4.57,4.57,0,0,1,.64,1.31c-.21.82.13,1.61-.93,2-.53,0-.85-.47-.89-1a3.81,3.81,0,0,1-.66-1.57C606.85,404.43,607.08,403.87,607.35,403.85Zm-4.89,6.61a2.09,2.09,0,0,1,.95,1.82c.05.54-.2.82-1,.89a1.94,1.94,0,0,1-.93-1.55C601.43,411.08,601.9,410.23,602.46,410.46Zm14.73-104.77c1.47,1.5,2.18,3.61,4.12,4.27-.94,1.7-2.22,2.61-3.65,1.64C615.38,310.16,617.11,308.13,617.19,305.69Zm2.4,9.82c1-.89,1.9.12,2.23.9.38,1.33,1,2.63.36,4.57-1.67-.68-2.32-2-3.21-3C618.1,317.25,618.82,316.11,619.59,315.51ZM636,318.27c.8-.07.87.74,1.18,1.26l-.46,1.11c-1.07.09-1.42-1-1.49-1.77C635.23,318.33,635.48,318,636,318.27ZM627,292.2c.22-.56.16-1.36,1.28-.91.56.23.6.76.37,1.32a3.28,3.28,0,0,0,.61,4.28c1.72,1.22,1.31,2.88.36,4.57C628.8,298.55,625.36,296.11,627,292.2Zm2.24,14.7c-1.55.94-2.56,1.83-4,.32C626.44,306.31,627.53,306.49,629.19,306.9Zm-4.66-21.27a3.45,3.45,0,0,1,.53,3.2c-.25.29-.52.32-.83-.2C623.36,287.89,623.27,286.81,624.53,285.63Zm.38,46c-.51.31-1.07.08-1.65-.41-.62-1-1.54-2.31-2.18-3.62a1,1,0,0,1,.43-1.38,1.25,1.25,0,0,1,1.63.14,13.27,13.27,0,0,1,2.45,3.59A1.62,1.62,0,0,1,624.91,331.59Zm-5.71-34.72c2,1.73,1.15,4.24,2.14,6.6-2.5-.89-4.18-1.57-6.12-2.23l-.09-1.07A5.64,5.64,0,0,0,619.2,296.87Zm-6.29-11.14c0-.53.5-.58.76-.6a1.4,1.4,0,0,1,1.19,1.26.72.72,0,0,1-.75.87C613.28,287.06,612.7,286.56,612.91,285.73Zm-63.1,98.58c-.54.05-1.39-.43-1.43-1,.21-.82,1-1.16,2.07-1.24a1.17,1.17,0,0,1,1.16,1A1.8,1.8,0,0,1,549.81,384.31Zm-3.61-49.22c.43,2.13.81,3.46.4,5.11C544.3,338.49,544.3,338.49,546.2,335.09ZM549,373.56a2.76,2.76,0,0,1,1.72,1.22,1.28,1.28,0,0,1-1.24,1.45c-.83-.21-1.38-.43-1.2-1.53C548.2,374.16,548.44,373.87,549,373.56Zm7.39,35.4c-1.32.37-1.94-.66-2.05-2a2.56,2.56,0,0,1,1.11-3.06,2.45,2.45,0,0,1,2.63,2.5C558.15,407.73,558,408.83,556.35,409Zm8.33-4.18c2.38,2.79,3.47,6.22,4.3,9.94a1.2,1.2,0,0,1-.68,1.68c-1,.35-1.9-.12-2-.93C565.77,411.73,564.15,408.34,564.68,404.78Zm-1.44-59.4c-.45,1.12-.62,2.48-2.25,2.34-.27,0-.31-.51-.31-.51-.13-1.62.88-2.51,2.77-2.66C563.49,345.09,563.51,345.36,563.24,345.38Zm3.36,4.88c-.54,0-1.34.1-1.41-.7s.72-1.14,1.24-1.46,1.1.19,1.14.73C567.65,349.9,567.14,350.21,566.6,350.26Zm39.8,3.89c-2.65-2.77-2.36-6-3.18-9.49C605.54,346.64,606.67,350.61,606.4,354.15Zm-1-74.85c-.48-2.67,1.69-2.57,3-2.95s1.72,1.22,1.81,2.29a32,32,0,0,1,.67,5.09c.06.81-.14,1.64-1.24,1.45-1.08.09-2.19-.37-1.76-1.75.2-.83.95-1.7-.42-1.86-.83-.21-.7,1.4-1.8,1.22A15,15,0,0,0,605.37,279.3ZM595,288c2.26,1.18,2.67,3,2.58,5.21,0,.54-.21.83-1,1.16a1.17,1.17,0,0,1-1.16-1C594.43,291.52,595.65,289.8,595,288Zm-2.45-13.87c.54,0,1.35-.11,1.66.41.89,1,2.36,2.52,1.12,4-1.5,1.47-.86,2.77-1.23,5-2.09-2.54-1.77-5.27-2.49-7.64C591.23,275,592,274.4,592.51,274.09Zm-5.19-.67c1.35-.11,1.7.94,1.78,2a1.92,1.92,0,0,1-1.42,2.55c-1.1-.19-1.43-1-1.51-2.05S586.27,273.77,587.32,273.42Zm-19.64,15.07c3.12-1.6.53-3.56.13-5.15a1.64,1.64,0,0,1,2.15-.17c1.12.46,1.23,1.8,1.31,2.87.44,2.13-.53,3.56-2.12,4a1.43,1.43,0,0,1-1.12-.45A.67.67,0,0,1,567.68,288.49ZM558,285.74c-.46-2.4-1.45-4.76-.57-7.26a4.91,4.91,0,0,1,2.22,4.15c.3,3.77,1.65,7.18,1.12,10.74a9.11,9.11,0,0,0,.57,3.74c.14,1.88.14,1.88-2.75,2.92C559.81,295.06,558.62,290.29,558,285.74Zm-.91,29.56c1.66-9.87,9.84-15.93,18.69-16.9l10.48-.82c11.36-.09,20.49,5.95,22.29,18.53.7,5.35,1.64,10.42,1.25,15.86-.53,3.56-.26,3.54-4,3.83l-45.44,3.59c-3,.23-3.22.25-3.46-2.7C556.57,329.41,555.75,322.44,557.08,315.3Zm-6.57,23c.24-.29.8-.06,1.36.16,1.45,1.24,1.27,2.34,0,3.52-.31-.52-.58-.5-.6-.77C550.65,340.15,549.51,339.43,550.51,338.27Zm3.68,63.82a1,1,0,0,1-1.39-.43c-.29-.25-.58-.49-.08-1.07.74-.87.34-2.46,1.87-3.67C556.17,399.77,556,401.14,554.19,402.09Zm-.57-7.25c0,.26-.52.31-.54,0-1.45-1.24.12-1.91,0-3C553.73,392.93,554.36,394,553.62,394.84Zm-3.49-27a1.16,1.16,0,0,1-1,1.16,1.37,1.37,0,0,1-1.18-1.26c.1-2.17-.09-4.59,1.06-7.12C551.65,363.07,550,365.64,550.13,367.79Zm-2.62-36.59c.87.75.38,1.33-.12,1.91a1.31,1.31,0,0,1-2.19-.37,3.31,3.31,0,0,1-.52-3.21C546,329.43,546.64,330.46,547.51,331.2ZM543,314.79c1,1.82,0,3.78.43,5.38C542.71,318.33,541.24,316.82,543,314.79ZM533,302c.54,0,1.37.17,1.39.44.25,3.22,3.38,5.14,2.6,9-2.63-2.5-3.65-5.12-4.94-7.73C531.76,303,532.25,302.38,533,302Z"/><path class="cls-2" d="M670.21,401.6c8.83,9,19.88,12,31.77,11.83a179.55,179.55,0,0,0,21-1.66c11.23-1.69,21.17-6,28.87-14.72,1-1.16,1.69-2.57,3.8-3.27l.7,8.87c.27,3.5.27,3.5,3.5,3.24l30.92-2.44c1.61-.12,2.37-.73,2.23-2.61a61.79,61.79,0,0,0-1.07-6.68c-1.47-11.79-2.95-23.57-3.88-35.4-1.54-16.11-2.83-32.51-3.84-48.66a137.74,137.74,0,0,0-3.45-23.27c-3.86-14.57-12.24-24.73-26.66-29.27-7.23-2.41-14.59-3.18-22.18-3.39-14.61.07-29.17.67-43.12,5.56-6.57,2.41-12.85,5.07-18.18,9.55C660.18,278,657,289.56,657.52,302.51a141.05,141.05,0,0,0,1.73,15c.87,4.26,0,4.05,4.61,3.69,5.4-.15,11-.87,16.41-1.29l18.28-1.44-.62-7.8c-.21-2.69-.15-5.4-.1-8.11.46-7.88,5.17-13.39,12.86-15.35a48.12,48.12,0,0,1,16.42-1c6.54.57,11.9,3.39,14,10,3.5,10,4.57,20.2,5.38,30.41.17,2.15-.88,2.51-2.5,2.64-2.69.21-5.13.13-7.82.34-12.9,1-25.58,1.48-38.31,4.65-7.45,1.67-14.6,3.58-21.34,7.36-8,4.42-13.48,10.8-14.93,19.85a66.21,66.21,0,0,0,1.6,27.19A31.84,31.84,0,0,0,670.21,401.6Zm92.57-16.5c-.52.31-1.35.1-1.39-.43-.57-3.75-4.27-6.16-4-10.23a1.42,1.42,0,0,1,1.48-1.74c.09,1.07-.05,2.71,1.09,3.43,2.58,2,2.3,5.22,3.3,7.58C763.52,384.23,763.32,385.05,762.78,385.1Zm-4.71-18.57c2.52,1.16,2.4,3.06,2.53,4.67-.19,1.1-.7,1.41-1.51,1.47A26.3,26.3,0,0,0,758.07,366.53Zm-.13-77.09c-.83-.2-1.43-1-1.21-1.53.46-1.11.35-2.46,1.67-2.83.87.74.42,1.86.75,2.64C759.24,288.8,759,289.63,757.94,289.44Zm14.87,106.23c-.81.06-.87-.74-.89-1,0-.54-.38-1.33.72-1.14.54,0,.85.47.91,1.28C773.59,395.34,773.33,395.36,772.81,395.67Zm.27-6.79c0,.54.11,1.35-.69,1.41-.85-.47-1.43-1-1.25-2.06,0-.54.47-.85,1-.9C773.25,387.52,773,388.35,773.08,388.88Zm-.65-8.33a1.26,1.26,0,0,1-.7,1.41c-.81.06-1.12-.46-1.43-1,0-.54-.36-1.06-.13-1.62-.06-.8.12-1.9.91-2.23s1.4.7,1.53,2.31A1.62,1.62,0,0,1,772.43,380.55Zm-5.18-69.12c2.65,2.77,1.31,6.39,2.37,9.55C767.32,319.27,766.79,319.31,767.25,311.43Zm2.08,16.07a44,44,0,0,0,3.49,10c1.62,3.38,1.42,7.73,1.18,11.53-.37,2.2-1,4.41-.81,6.83.1,1.35-.37,2.19-2,1.78-1.09-.18-1.94-.65-1-2.35,1.93-2.86,1.71-9.06.92-12.25-.85-4-2.76-7.63-2.85-12.22A12.24,12.24,0,0,0,764.1,323C767.35,323.06,768.6,325.12,769.33,327.5Zm-5.51-32a1.16,1.16,0,0,1,1.16,1,1.46,1.46,0,0,1-1.28.91.85.85,0,0,1-.87-.74A1.16,1.16,0,0,1,763.82,295.47Zm-10.27-17c1.26-1.18.28-3.27,1.56-4.18,1.26-1.19,2.53,1.15,4.14,1,1.08-.08,2.42-.19,2.26,1.18-.43,1.38-1.55.93-2.65.75-1.9-.12-2.93.5-3.32,2.42a1.16,1.16,0,0,1-1.84.69C753.14,280.08,753.05,279,753.55,278.43Zm5.2,79.66c1.1.19.92,1.28,1,2.09-.21.83.42,1.86-.6,2.75a1,1,0,0,1-.82-.2,3,3,0,0,1-1-2.9C757.47,359,757.66,357.91,758.75,358.09Zm-6.09-39.55c.78-.34,1.61-.13,1.65.41.07.8-.7,1.4-1.75,1.76-.27,0-.58-.5-.85-.48A1.53,1.53,0,0,1,752.66,318.54Zm.53,27.28a2.05,2.05,0,0,1-1,.62,1.53,1.53,0,0,1-1.22-1.8,3.67,3.67,0,0,1,1-.89A3.38,3.38,0,0,1,753.19,345.82Zm-8.72-76.14a1.49,1.49,0,0,1,.92,1.28l-.23.55a1,1,0,0,1-1.16-1C744,270.25,743.94,269.72,744.47,269.68Zm-63.23,7.69c.06.81-.7,1.41-1.49,1.74-.76.6-1.36-.16-1.68-.68-.62-1-1.51-2-1.08-3.43,1.32-.38,1.72,1.22,3.07,1.11C680.59,276.07,681.44,276.54,681.24,277.37ZM690.39,294a1.27,1.27,0,0,1-.14,1.63c-2-1.19-2.41-3-2.55-4.93.16-1.37.88-2.51.51-3.83A.71.71,0,0,1,689,286c.8-.07.85.47,1.16,1a2.06,2.06,0,0,1-.16,1.36C688.75,290.3,689.44,292.14,690.39,294Zm5.66-3.69c-.8.06-1.14-.72-1.2-1.53a1.24,1.24,0,0,1,1.28-.91c.54-.05.6.76.91,1.28C696.82,289.67,696.59,290.23,696.05,290.27Zm19-9.35a1.84,1.84,0,0,1-2.35,1c-1.39-.43-.65-1.3-.17-2.15.68-1.68.68-1.68.2-4.35a2.62,2.62,0,0,1,2.61,2.23C715.43,278.73,715.81,280.05,715.06,280.92ZM700.34,399.49c-.62-1,.43-1.39.95-1.7,1.75-1.76,2.12-4,.92-5.48-2.37-2.52-.65-4.82.5-7.34.31.51.89,1,.67,1.57a34.22,34.22,0,0,0,2.33,9c1,2.36.25,3.23-1.9,3.4C702.49,399.32,701.48,400.21,700.34,399.49Zm6.32,8.16c-1.59.4-3.08-1.38-3-3.28-.13-1.62.62-2.49,2-2.59,1.61-.13,3.11,1.65,3.23,3.26C708.75,406.67,708,407.54,706.66,407.65Zm1.81-49.11c9.51-2.91,19.19-3.68,28.91-3.9a54,54,0,0,1,9,.37c1.63.15,2.48.62,2.61,2.23,1.26,9.1-1.73,15.83-9.5,20.23a29.35,29.35,0,0,1-13.19,4.29c-4.3.34-8.58.94-13.17,1a10.67,10.67,0,0,1-4.08-.22c-6.37-1.94-8.49-4.74-8.77-11.76C699.75,364.64,702.39,360.37,708.47,358.54Zm-13.08-4.65a9.16,9.16,0,0,0,1.48-5.25c0-.54.45-1.12,1-.9.27,0,1.12.46,1.16,1-.08,2.44-.18,4.61-.25,7.05.06.81-.75.87-1.55.93C695.89,356.83,694.4,355.05,695.39,353.89Zm-3.06,43.53c.79-.33,1.1.18,1.14.72.31.52.08,1.07-.45,1.12a1,1,0,0,1-1.16-1C691.84,398,692.06,397.44,692.33,397.42Zm-25-29.14c1-1.7-.57-3.74.9-5.75a46.72,46.72,0,0,1,4,16.73,33,33,0,0,0,1.11,7.21,1,1,0,0,1-.43,1.39c-.78.33-1.1-.19-1.41-.7-.64-1.3-1.8-2.29-1.66-3.93.33-2.73-1-5.33-2-7.69S665.89,370.83,667.31,368.28Z"/><path class="cls-2" d="M914.61,303.6c-.81.06-1.31.64-1.22,1.71.06.81.37,1.33,1.45,1.24s1.3-.64,1.26-1.18C916,304,915.68,303.51,914.61,303.6Z"/><path class="cls-2" d="M896.54,290.68a44.35,44.35,0,0,1,1.78,8.79l7.17,90.87c.32,4,.32,4,4.35,3.72L941,391.6c4-.32,4-.32,3.71-4.35l-6.81-86.31a38.16,38.16,0,0,1-.17-5.66c-.5-9.7-2-19-6.26-27.92-4-8.88-10-16.52-19.22-20.66a53.39,53.39,0,0,0-19.86-4.93c-2.74-.32-5.4.16-8.09.37-9.45.21-18.86,1-27.73,5.16-5.21,2.58-10.1,5.67-13.8,10.29-2.47,2.9-3.85,6-6,9.94-.73-5.89-1.67-11-2.34-16-.17-2.15-1-2.89-3.17-2.45l-28.77,2.27c-3.22.25-3.22.25-2.95,3.75l.09,1.07a275,275,0,0,1,4.75,32.9c2.82,32.24,5.39,64.77,8,97.3l1,12.64c-.1,2.17.75,2.65,3.17,2.46l33.07-2.61c2.15-.17,3.18-.8,2.74-2.92a13,13,0,0,1-.25-3.23c-2.17-27.42-4.33-54.85-6.76-82.25a80.31,80.31,0,0,1,.16-11.64c.38-9,4.17-15.75,12.83-19.14a40.89,40.89,0,0,1,11.16-2.5c3.48-.55,6.77,0,10.31.26C888,278.37,894,282.23,896.54,290.68Zm28.62,88.37c-1.91-.12-2.53-1.15-3-3.28.81-.07,1.08-.09,1.1.18,1.12.45,2.75.6,2.61,2.23A.72.72,0,0,1,925.16,379.05Zm9.78-23.5c-1.72-1.21-2.08-2.27-.3-3.76A3.24,3.24,0,0,1,934.94,355.55Zm-7.4-69.75c1.76,1.76,1.64,3.66.18,5.67C925,288.43,925,288.43,927.54,285.8Zm-5.42-.11a1,1,0,0,1-.83-.21c-1.14-.72-.66-1.57-.48-2.66.25-.29.23-.56.45-1.12.32.51.61.76.92,1.28A2.49,2.49,0,0,1,922.12,285.69Zm-1.86-9.86c1.8,2.29,1.8,2.29.09,4.59A4.66,4.66,0,0,1,920.26,275.83Zm-12.75-17.66c3.37,1.62,4,2.12,3,4.35-.63,2.22-2.37,4.25,1,5.88l0,.27c-1.78,1.49-1.15,2.52,0,3.78a9.45,9.45,0,0,1,2,4.44c.9,4.53,3.1,8.42,3.73,13,.38,4.84,1.82,9.32,1.93,14.18-.14,1.64.23,3-1,4.68-1.24,1.45,0,3.51,1.21,5,1.13.72,2,1.74,1.33,3.14-1.86.42-1.75-1.48-2.61-2.22-.59-.5-1.17-1-2-.66-1,.35-.43,1.38-.37,2.19a3.38,3.38,0,0,0,.4,1.59c1.2,1.53,1.82,2.56-.22,4.08-.77.6-.39,1.92.73,2.38.85.47,1.67.67,2.52,1.15,1.41.7,2.44.08,2.32-1.54a5.93,5.93,0,0,0-.17-2.15c-.05-.54.2-.83.72-1.14a1,1,0,0,1,1.16,1,12.87,12.87,0,0,0,2.16,6.87c0,.53.11,1.34.67,1.57,2.28,1.44,2.38,2.78,0,3.78.66,1.57,2,1.2,2.83,1.67,2,.93,2.08,2.27,1.17,4.51-.45,1.12-.37,2.19-.82,3.31-.21.83-1,.89-1.82,1a1.46,1.46,0,0,1-.91-1.28l-.21-2.68c-.15-1.89-.51-2.94-2.24-.91-1,.89-1.34.11-1.41-.7-.33-.79.16-1.37.64-2.22,2-2.58.4-5.17-.08-7.83,0-.54-.58-.5-1.12-.46a1.23,1.23,0,0,0-.74.87,7.72,7.72,0,0,0-.08,2.44c.09,1.08.71,2.11-.28,3.27a1,1,0,0,1-1.16-1c-.33-.78-.42-1.86-1.49-1.77s-1.51,1.47-1.16,2.52A36.25,36.25,0,0,1,919,342.2c.09,1.08.89,1,1.46,1.24,2.21.64,3.68,2.15,5.89,2.78,3.29.55,3,4.36,5.11,6.36.29.25-.19,1.1-.71,1.41-.76.6-1.09-.18-1.67-.68-.89-1-.73-2.38-1.37-3.68a2.75,2.75,0,0,0-3.15-2.18c-1.86.41-2.36,1-2.48,2.9a14.07,14.07,0,0,1-.71,4.65c0,.54-.19,1.1-.15,1.64.13,1.61,2.08,2.27,1.69,4.19a5.24,5.24,0,0,0,.32,4c1.16,1,2.06-1.25,3.24,0-.12,1.9-3.14,1.33-3,3.48.42,1.86,2.07,2.27,3.24,3.26.55.23.6.77,1.18,1.26.6.77,1.76,1.76.5,2.94s-1.9-.12-2.53-1.16a1.81,1.81,0,0,0-1.69-.94c-3.05-.85-4.85-3.14-4.3-6.43.8-3.58-.26-6.74-1.32-9.9-.4-1.6-.77-2.92.47-4.37a3.66,3.66,0,0,0-.34-4.3c-2.72-3.57-2.79-7.9-2.57-12a6.9,6.9,0,0,0-.59-4,15.92,15.92,0,0,1-1.21-5.05c-.9-8-2.64-16.29-3-24.65-.11-1.34-1.56-2.58-1.15-4.23.79-.34,1.08-.09,1.39.43.91,1.28,2.05,2,3.33,1.09a2.77,2.77,0,0,0,1.36-3.36,22.77,22.77,0,0,1-1.57-6.1,1.43,1.43,0,0,0-1.45-1.23c-1.09-.19-1,.62-1.23,1.45.08,1.07.43,2.13-.85,3-1.18-1.26-1.59-3.12-2-5-.5-2.94.36-5.71-.95-8.58,0-.27-.08-1.08.18-1.1,3.31-2.7.41-5.17-.34-7.82a21.25,21.25,0,0,0-.84-3.72C906.4,264.75,908.07,261.91,907.51,258.17Zm-5.76-.9c.54,0,1.3-.65,2.17.1.07.8-.72,1.14-.94,1.69-.77.61-1.28.92-1.88.15-.3-.24-.58-.49-.61-.76C900.14,257.39,901.21,257.31,901.75,257.27Zm-21.26,1.4c-.64-1.3-1.55-2.58-1.12-4,.16-1.36.57-3,1.87-3.66,1.59-.4,2,1.73,3.44,2.43.45-1.11-.95-1.81-.21-2.68,1-.9,1.88-.15,2.75.59a4,4,0,0,1,1.31,2.87c.35,1.06.69,1.84,1.51,2.05,1.1.18,1.55-.94,1.78-1.49.49-.58.72-1.15,1.53-1.21,2.09,2.54-.09,5.69,2.27,8.21a2.19,2.19,0,0,1-2.57-1.69,3.82,3.82,0,0,1-1.16-1c-3.08,2.14-3.62-1.34-5.32-2.29-2-1.19-3-.84-2.6,1.29.5,2.94-3,3.21-3.36,5.4,0,.54-.79.34-1.08.09a4,4,0,0,1-.67-1.57C878.47,260.46,881.47,260.76,880.49,258.67Zm-42.63,63.15a1.81,1.81,0,0,1,1.43,1c.09,1.08-.16,1.37-.95,1.7a1.72,1.72,0,0,1-1.72-1.22A1.29,1.29,0,0,1,837.86,321.82Zm-10.39,60.34c.09,1.07-.12,1.9-1.19,2-.81.06-1.14-.72-1.21-1.53l0-.27c.57-6.54-2.83-12-3.32-18.13-.45-5.65-.89-11.3-1.05-16.69,0-6.77-.5-13.22-2.87-19.26-1.7-4.46-2.09-9.3-3-13.83-1.23-5.31-1.66-10.69-2.62-16-.13-1.62-.81-3.46.67-5.2,2.28,1.45,2.16,3.35,2.31,5.23.46,5.92,2,12,3,18.16,1.53,9.08,4.11,17.8,4.86,27.21l.14,1.88c-1.06,7.12,1.11,14,1.39,21a12.15,12.15,0,0,0,1.5,5.29C827.48,375.39,827.22,378.93,827.47,382.16ZM823,291.34c-.19-5.93-2.21-10.91-3.17-16.25C823.3,277.79,825.41,287.37,823,291.34Zm5.84,43.1c-1.16-1-1-2.09-.88-4.26C829.19,332,830.36,333,828.85,334.44Zm-.17-22.71c-.21.83-.7,1.4-1.53,1.2-.54,0-.87-.74-.64-1.3.14-1.64-.84-3.72.65-5.47C828.65,307.94,829.61,309.76,828.68,311.73Zm5.85,50.12c-.79.33-1.12-.45-1.43-1a1.79,1.79,0,0,1,1-1.42c.53,0,.85.47,1.16,1A1.49,1.49,0,0,1,834.53,361.85Zm8.56,12.58a27,27,0,0,0-3.06-1.11,97.72,97.72,0,0,0-.86-17.78,4,4,0,0,1-.67-1.58c.23-.55.71-1.4,1.24-1.45,1.06-.35,1.12.46,1.45,1.24,1.21,5.05,2.69,10.07,2.82,15.2C844.16,370.83,844.56,372.42,843.09,374.43ZM842,284.71c-.23.56-.43,1.39-1.24,1.45a1.37,1.37,0,0,1-1.18-1.26c-.75-2.65-1.52-5.56-.14-8.65C841.23,278.81,842.79,281.4,842,284.71Zm24.95-26.59c-1.32.38-1.67-.68-1.76-1.75s.68-1.68,1.76-1.76c1.09.18,1.67.67,1.74,1.48A1.7,1.7,0,0,1,866.92,258.12Z"/><path class="cls-2" d="M913,286.41a1.23,1.23,0,0,0,1-1.43c-.33-.78-.42-1.86-1.76-1.75-1.08.08-1.28.91-1.2,2C911.32,286,911.93,286.76,913,286.41Z"/><path class="cls-2" d="M976.2,384.76a69.39,69.39,0,0,0,27.13,4.36c5.66-.18,11.12.47,16.77,0,6.45-.51,12.57-1.81,18.71-2.83a57.65,57.65,0,0,0,23.9-9.19c10-6.48,15.52-15.84,16.47-27.81.71-8.18-.45-15.93-2.45-24.16-3.06-11.39-10.09-18.14-21.39-20.76a71.34,71.34,0,0,0-23.95-1.9c-6.72.53-13.73.81-20.45,1.34a25,25,0,0,1-6.52-.3c-4.95-1-9.19-3.33-11-8.6-1.75-5-3.22-10-2.82-15.2.42-8.42,5.35-14.49,13.1-15.64a90.49,90.49,0,0,1,19.09-1.5c7.88.46,14.43,4.54,16.12,12.25a53.72,53.72,0,0,1,.77,13.19c-.08,2.45.23,3,2.38,2.79,10.78-.58,21.51-1.69,32-2.52,1.64.14,2.4-.46,2.52-2.36.68-5.2,1.33-10.66.34-16.26a69.18,69.18,0,0,0-1.08-6.95c-1.57-9.62-5.44-17.43-13.72-23a53.67,53.67,0,0,0-14.55-6.15c-9.4-2.51-18.89-2.84-28.35-2.63a106.28,106.28,0,0,0-41.54,8.41c-16,6.94-24.45,19.24-25.53,36.37-.68,12,1.82,23.12,5.92,33.89,6.44,16.54,20.36,24.91,37.65,24.63a184.23,184.23,0,0,0,24.55-.86,47.29,47.29,0,0,1,15.21.7c5.48.92,7.9,4.24,7.52,9.68a11.46,11.46,0,0,1-6.49,10.25c-2.61,1.29-4.94,2.56-7.63,2.77-8.87.7-17.41,2.18-26.12,1.52-9.54-.87-17.92-4.27-24.18-11.62a3.92,3.92,0,0,0-2.59-2c-5.9,7.5-11.78,15.27-17.66,23a2.12,2.12,0,0,0,.23,3A33.79,33.79,0,0,0,976.2,384.76Zm81.9-110.61c-1.76-1.75-1.91-3.64-1.56-6.1C1059.39,270,1059.52,271.6,1058.1,274.15Zm-4.29-23.47c.52-.31.83.21,1.14.72.4,1.6.79,3.19.11,4.86-2-1.19-1.59-3.12-2.24-4.42A1.14,1.14,0,0,1,1053.81,250.68Zm-1.51,18.52c1.18,1.26,1,2.62-.24,3.8-1.7-.94-2.08-2.27-1.11-3.7A.77.77,0,0,1,1052.3,269.2Zm-2.41-13.34c.33.79.4,1.59.73,2.38,0,.54-.18,1.09-.14,1.63-.23.56-.72,1.14-1.28.91-.27,0-.83-.2-.85-.47a20.77,20.77,0,0,1-1.64-3.66,1.72,1.72,0,0,1,1.2-2C1048.69,254.33,1049.56,255.08,1049.89,255.86Zm-4.61-10.46c2.57,1.69,2.74,3.85,2.43,6.85A8.58,8.58,0,0,1,1045.28,245.4Zm-7,4.34a2.93,2.93,0,0,1,2.36,2.52c0,.54-.45,1.12-1,.89a2.84,2.84,0,0,1-2.34-2.25C1037,250.38,1037.53,250.07,1038.32,249.74Zm-8.12,3.35c-.12,1.9,1.12,4-1.15,6-.54-3.48-.78-6.43-1.82-9.33C1028.89,250.21,1030.3,250.91,1030.2,253.09Zm-5.73-7.4c.93-2,.27-3.53.12-5.42.22-.56.18-1.09,1-1.43a2.3,2.3,0,0,1,1.4.71c.38,1.32,1.31,2.87.34,4.3-1.46,2-.78,3.85-.34,6C1023.38,249,1023.11,249.05,1024.47,245.69Zm-11.05-6.43c1.07-.08,1.4.7,1.47,1.51a7.68,7.68,0,0,1,.46,2.4,5.12,5.12,0,0,0,1.95,4.17,1.3,1.3,0,0,1,.93,1.55c-.2.83-1,.89-1.8,1.22a1.27,1.27,0,0,1-1.45-1.23,63.83,63.83,0,0,0-2.22-7.67C1012.69,240.4,1012.63,239.59,1013.42,239.26Zm-51.29,25.42a1,1,0,0,1,.64,1.3c-.23.56-.2.83-.74.87a1.5,1.5,0,0,1-.92-1.28C961.07,265,961.57,264.45,962.13,264.68ZM961.59,275c.52-.31,1.07-.08,1.65.41a.71.71,0,0,1-.74.87c-.52.31-1.07.09-1.12-.45A1,1,0,0,1,961.59,275Zm-2.82,15.64a.81.81,0,1,1-.13-1.61c.54,0,.56.23.62,1A.53.53,0,0,1,958.77,290.64ZM964,302.4c-1.32.38-1.43-1-1.76-1.75-.08-1.08.1-2.17,1.44-2.28,1.08-.09,1.16,1,1.25,2.07C964.72,301,965.36,302.3,964,302.4Zm-2.37-16.31c0-.54.19-1.1.45-1.12.54,0,.85.47.9,1a.72.72,0,0,1-.75.87C962,286.87,961.67,286.36,961.65,286.09Zm1.5-5a12.11,12.11,0,0,0-4.14-1c-.56-.22-1.14-.72-.66-1.57.2-.82.68-1.67,1.24-1.45,1.43,1,3.31.82,4.74,1.79a1.63,1.63,0,0,1,.35,1.06C964.48,280.72,964,281.57,963.15,281.1ZM1007.84,244c.52-.31.56.23.85.47,0,.54-.18,1.1-.45,1.12-.54,0-.83-.2-.85-.47C1007.08,244.63,1007.32,244.34,1007.84,244Zm-8.63-3.11a1.49,1.49,0,0,1,1.7,1,2,2,0,0,1,.62,1c.11,1.35,1,2.36.57,3.75-3.05-.85-4.23-2.1-4.11-4A2.1,2.1,0,0,1,999.21,240.92Zm-4,7.08c4.1,4,4.1,4,9.43-.47,1.47,1.51-.66,1.95-.86,2.77-.48.85-.1,2.18-.87,2.78-1.32.37-2.48-.62-3.56-.53C995.26,252.6,995.26,252.6,995.17,248Zm-15.43,13.67c2.16,3.34,3.45,5.95,2.88,9-.23.56-.44,1.38-1.53,1.2-.54,0-.87-.74-.65-1.3C980.77,267.81,978.41,265.29,979.74,261.67Zm.49-7.62c1.28,2.61.07,4.33-.59,6.27C978.12,258.28,978.78,256.33,980.23,254.05Zm4,50.28a1,1,0,0,1,.64,1.3c-.22.56-.72,1.14-1.25,1.18-1.89.15-2.78-.86-3.44-2.43C981.67,303.18,982.83,304.17,984.19,304.33Zm-12.72-55a2,2,0,0,1,2.23.91,5.32,5.32,0,0,1-.05,6.23c-1.72-1.22-2.16-3.35-3.09-4.9A1.61,1.61,0,0,1,971.47,249.33Zm3.75,13.23c0,.54-.41,1.66-1,1.43-1.37-.16-1.5-1.77-1.85-2.83-.31-.51.2-.83.72-1.14C974.76,260.17,975.11,261.22,975.22,262.56ZM968.07,268c-1.08.08-1.88.15-2-.93,0-.27.21-.83.48-.85,1.07-.08,1.63.14,2,.93C968.86,267.66,968.34,268,968.07,268ZM973,302.51c-.52.31-1.39-.43-1.18-1.26a3.09,3.09,0,0,1,1.93-2.86c.52-.31.83.21,1.16,1C974.42,300.5,974.82,302.09,973,302.51Zm.22-10.84c-.26,0-.6-.76-.62-1a1,1,0,0,1,1-1.16c.54-.05.6.76.62,1C974.24,291.32,973.74,291.9,973.18,291.67Zm-.65-4.82c-.29-.24-.29-.24-.31-.51-.33-.79-.68-1.84.35-2.47.25-.29.54,0,.83.21C974.31,285.36,973.57,286.23,972.53,286.85Zm4.3-3.85c-1-2.63-3.61-4.59-3.33-7.86.14-1.63-1.33-3.14-1.74-5a2.4,2.4,0,0,1,1.91-3.13c.83.21,1.39.44,1.16,1-.65,1.95.73,2.38,1.62,3.39a2.06,2.06,0,0,1,.73,2.38c-1.42,2.55-.17,4.61,1.07,6.68l.93,1.55a1.48,1.48,0,0,1-.94,1.7C977.72,284,977.14,283.51,976.83,283Zm4,33.23c1.26-1.18,2.52-2.37,1.84-4.2,0-.54-.11-1.35.69-1.41.54-.05,1.1.18,1.14.72a30.77,30.77,0,0,0,1.4,4C984,315.44,982.75,316.89,980.8,316.23Zm5.16,3.65c-.56-.23-1.37-.16-1.43-1a1.16,1.16,0,0,1,1-1.16A1.27,1.27,0,0,1,987,319C987,319.79,986.5,319.84,986,319.88Zm-1.2-32.37c-.54,0-1.1-.18-1.14-.72-.06-.81.45-1.12,1.26-1.18a1,1,0,0,1,1.16,1C985.83,287.43,985.59,287.72,984.76,287.51ZM985,259.9a12,12,0,0,1,.21-7.59c1.53,2.31,1.21,5,1.93,7.42a1.15,1.15,0,0,1-1,1.16A1,1,0,0,1,985,259.9Zm2.6,9c-.89-1-.42-1.86.3-3,2-2.05,2.08-4.49,1.31-7.41-.83-3.72-1.13-7.48-2-11.47a6.19,6.19,0,0,1,.74-4.39c.68-1.68,2.31-1.53,3.25,0a4.7,4.7,0,0,1,.79,3.19,11.44,11.44,0,0,0,.53,6.72c.33.78.42,1.86-.66,1.94-1.59.4-2,1.52-1.65,3.11.69,1.84.59,4,3.07,4.63.27,0,.81-.06.85.47a19.45,19.45,0,0,1-3.55,3C989.6,266.57,989.21,268.49,987.62,268.89Zm26.53,58.5c-.15,1.64-1.22,1.72-2.57,1.83-4,.32-4.9-.43-4.68-4.5-.06-.81.14-1.63-.69-1.84-2-1.2-1.55-2.58-.58-4a1.85,1.85,0,0,0-.75-2.65c-3.11-1.65-3.09-4.89-3.35-8.12,5.69.09,7.43,1.58,7.34,7.27a65,65,0,0,0,.57,7.26c.13,1.61.77,2.91,2.65,2.76C1013.71,325.27,1014.31,326,1014.15,327.39Zm4.26-.87c-.23.56-.21.82-.75.87-.51.31-.8.06-1.12-.46a5.31,5.31,0,0,1-.72-2.37c-.4-1.59-.26-3.23-1.19-4.78a1.31,1.31,0,0,1,.37-2.19c.78-.33,1.4.7,1.45,1.24.7,2.11,1.41,4.21,1.81,5.81Zm7.06-16.79c1.07-.09,1.41.7,1.49,1.77s-.1,2.18-1.44,2.28c-1.08.09-1.16-1-1.23-1.8C1024.21,310.91,1024.12,309.84,1025.47,309.73Zm4,10.23a6.4,6.4,0,0,0,0,6.22c.27,0,0,.54.06.81a1.78,1.78,0,0,1-1.77,1.49,1.43,1.43,0,0,1-1.45-1.23,15.62,15.62,0,0,0-1.3-6.12,4.31,4.31,0,0,1,.37-2.2,2.34,2.34,0,0,1,2.61-1.29C1028.83,318.12,1030,318.84,1029.52,320Zm8.3,2.32c-1.85-2.83-2.48-7.38-.83-10.49C1037.83,315.52,1039.7,318.62,1037.82,322.28Zm17.38,24.87a1.8,1.8,0,0,1,.64-2.21c.83.2,1.14.72,1.47,1.5.31.52,1.47,1.51-.1,2.17C1056.18,349.24,1055.55,348.2,1055.2,347.15Zm5,21.79c-1.35.11-1.7-.95-2.05-2l-.09-1.08c-.08-1.07-.17-2.15.88-2.5s1.68.68,2,1.46a4.45,4.45,0,0,1,.42,1.86C1061.41,367.49,1061.24,368.86,1060.17,368.94Zm-1.11-27.78a1.22,1.22,0,0,1,1-.89c.29.25.85.48.87.75a52.79,52.79,0,0,1,1,6.14C1059.42,345.73,1059.5,343.29,1059.06,341.16Zm6.84,7.85c1.07-.08,1.14.72,1.18,1.26s.38,1.32-.43,1.39a1.55,1.55,0,0,1-1.74-1.49A1.15,1.15,0,0,1,1065.9,349Zm-2.41,3.71c.06.8.14,1.88-1.18,2.25a2.87,2.87,0,0,1,0-3C1063.15,351.93,1063.71,352.16,1063.49,352.72Zm-13.88-28.39c.14-1.64-.52-3.21,1.32-3.9a4.05,4.05,0,0,1,4.14,1c.29.25.31.52.6.76a1,1,0,0,0,1.39.44.85.85,0,0,0,.43-1.39,28.77,28.77,0,0,1-.8-6.7c.8-.06,1.32-.38,1.36.16.51,2.94,1,5.61,1.49,8.54.4,1.59-1.18,2.26-1.63,3.38-1,1.69-1.17,2.25-2.89,1-.83-.21-1.32.37-1.53,1.2.11,1.34.48,2.67,1.83,2.56,1.9.12,4.07.22,5.51-2.06,1.89,3.37-1.77,5-1.26,7.95a3.39,3.39,0,0,1-2.1-2.54,1.45,1.45,0,1,0-2.62,1c0,.53.37,1.32.41,1.86.4,1.59,1.31,2.87.08,4.32-1.07-3.16-3.16-5.7-3.43-9.2C1051.67,329.84,1049.31,327.32,1049.61,324.33Zm-1.07,44.72a2.61,2.61,0,0,1-1.22,1.72c-.51.31-.84-.48-.89-1a1.81,1.81,0,0,1,.93-2C1047.9,367.75,1048.23,368.53,1048.54,369.05Zm-4.62-14c.81-.06,1.14.72,1.21,1.53a14.2,14.2,0,0,1,.54,3.48c.35,1.05,1,2.62-.57,3-1.62.12-1.72-1.22-1.85-2.83.18-1.1-.44-2.13-.52-3.21C1042.66,356.26,1042.85,355.16,1043.92,355.07Zm-4.36,3.05c1.89-.15,1.19,1.26,1,2.09-.45,1.12.71,2.11-.26,3.54a3.71,3.71,0,0,1-1.89-3.37C1038.31,359.3,1038.49,358.21,1039.56,358.12Zm-23.19,18.06c1.26-1.18.87-2.77.2-4.34s-.54-3.47-1-5.34a1.35,1.35,0,0,1,1.19-2,1.55,1.55,0,0,1,1.74,1.48,4.45,4.45,0,0,1,.42,1.86c-.3,3,1,5.61.95,8.59-.23.55.35,1.05.89,1,.81-.07,1-.63,1.26-1.18a5.25,5.25,0,0,0-.32-4c-.42-1.86-1.12-4-.17-5.66.24-.29.78-.34.8-.07a6.08,6.08,0,0,1,1.48,5c-.33,2.73.86,4,3.69,5.66-3.7,1.1-6.07,1.83-7.19,4.89-.18,1.1-1.23,1.45-2.33,1.27s-1.16-1-1.25-2.07c0-.54-.1-1.34-.39-1.59C1014.12,378.53,1014.86,377.66,1016.37,376.18Zm-12.36-9.3c.24-.29.47-.85,1-.89a1,1,0,0,1,.56.22c.93,1.55,1.06,3.17,2.24,4.43a2.64,2.64,0,0,1-.21.82c-.53.05-1.05.36-1.34.11C1005.15,371.12,1003.82,368,1004,366.88Zm.86,7.51c.74-.87,1.55-.94,2.15-.17.62,1-.43,1.38-1.22,1.71a2.55,2.55,0,0,1-2.11.71C1003.32,375.32,1004.37,375,1004.87,374.39Zm-8.51-5a2.22,2.22,0,0,1,1.45,1.23c.5,2.94.49,6.19,1.77,8.79,0,.54.11,1.35-.7,1.41a1,1,0,0,1-1.43-1C997.18,376.35,995.29,373,996.36,369.38Zm-5.05,1.21c.27,0,.31.51.6.76-.22.56-.16,1.37-1,1.16a1.4,1.4,0,0,1-.62-1C990.26,370.94,990.75,370.36,991.31,370.59Zm-8.42-.42c1.08-.09,1.39.43,1.45,1.24-.22.55.13,1.61-.94,1.69-1.06.36-1.41-.7-1.48-1.5A1.24,1.24,0,0,1,982.89,370.17Z"/><path class="cls-2" d="M782.26,498.69c3.27-.26,5.06-1.34,4.73-5.53-1.83-17.21-2.72-34.49-4-51.27-.29-3.72-1.8-5-5.49-4.25l-248.4,19.59c-7.46.59-7.46.59-6.87,8l3.93,49.86c.19,2.33,1.23,3.66,4,3.44l86.22-6.8c2.8-.22,4.27.6,4.49,3.4-.28,2.36.33,4.19.48,6.05l18.56,235.36c.52,6.52.52,6.52,7,6L708,757.78c5.12-.4,5.09-.87,4.68-6L694,515c-.8-10.25-1.66-9.25,8.59-10l51.27-4.05C763.16,500.2,772.44,499,782.26,498.69ZM582.59,499.9c-1.4.11-2.41-.74-1.58-2.22-.08-.93.86-1,1.82-.61.94-.07,1,1.32,1.59,2.22C584,499.33,583.09,500.33,582.59,499.9Zm3.2-30.73c-1.43-.36-2.87-.71-2.55-2.61a2.52,2.52,0,0,1,2.15-2.52c1.86-.14,2,1.72,2.12,3.12C588.05,468.05,587.73,470,585.79,469.17Zm7.85,34.08c-2.55-2.61-3.24-5.37-.66-8.39C596.93,497.37,594.35,500.38,593.64,503.25Zm29.05-12.14c-1.21,2.44-.52,5.2.16,8,.15,1.87.26,3.26-2,4.85A20.8,20.8,0,0,1,619.32,490c.71-2.87,1-4.77-2.38-6.38-2.87-.71-3.59-3.93-2.88-6.8a6.43,6.43,0,0,1,4.37-4.1c1.86-.15,3.84,1.11,2.58,3.08-2.1,3-.56,4.73.56,7C623.65,485.41,624.3,487.7,622.69,491.11Zm39.32,11c.39-1,1.33-1,2.26-1.12.5.43,1.43.36,1,1.33.08.93-.82,1.47-1.75,1.54C662.16,503.94,661.62,503.05,662,502.08Zm11.16,111.67c-2.74-5-2.74-5-1.2-9.29C674.05,607.11,673.77,609.48,673.17,613.75Zm-17.63-158c3,2.1,3,2.1,1,6.95C654.94,460,654.79,458.1,655.54,455.7ZM677.1,699.25c1.32-1,1.54,1.76,1.19,3.19-.82,1.47.25,3.26-1,4.77C677.5,704.38,674.45,701.34,677.1,699.25ZM656.79,507.18a4.47,4.47,0,0,1,1.37,5.52c-2.15,2.51-1.46,5.27-2.56,9.11-2.16-3.58-3.31-6.3-3.57-9.56-.19-2.33.13-4.24,2.39-5.35C655.35,506.83,656.25,506.29,656.79,507.18Zm3,32.12c-3.09-3.51-2.88-6.81-2.71-10.57C661.53,531.66,661.61,532.59,659.79,539.3Zm-12.54-52c.39-1,.75-2.4,2.18-2.05s3,2.11,2.55,2.61c-3,4-.81,7.57.45,11.69,0,.47-.78,1.94-1.71,2-1.36.58-1.9-.32-2-1.25-1.15-2.72-.91-5.55-2.45-7.31C646.57,490.64,646.93,489.2,647.25,487.3ZM660,666.37c-.94.07-1.47-.82-1.59-2.22.4-1,.79-1.94,1.72-2,1,.39,1,1.33,1.15,2.72C661.29,665.33,661.87,666.69,660,666.37ZM644.8,503.91c2.05,2.18,3.17,4.43,2.46,7.31-.43.5-1.29,1.5-1.76,1.54a2.08,2.08,0,0,1-1.5-1.29A6.58,6.58,0,0,1,644.8,503.91ZM642,533.67c0-.46.85-1,1.79-1.08a2.41,2.41,0,0,1,1.65,3.15,2.08,2.08,0,0,1-1.29,1.51C642.68,536.43,641.64,535.1,642,533.67Zm5.18,83.53c-2.41-.75-2.63-3.54-1.95-6.88,2.87.71,5.31,1.93,8.64,2.6C651.69,615,650.05,617.91,647.18,617.2Zm10.05,62c2.65-2.09,1.5-4.81,2.21-7.68,2.44,1.22,3,3,2.66,4-1.89,5.78,1.24,9.75,3,13.84,1.62,2.68,2.73,4.94-.31,8-2.73-4.94-4.07-10-7.66-13.93A3,3,0,0,1,657.23,679.25Zm8,29.85c-.43.5-1.36.58-1.39.11-1.59-2.22-.34-4.19.45-6.13l1,.39C666.32,705.26,667,707.56,665.21,709.1ZM672.34,740c-2.3.65-2.48-1.68-3-2.58-2.16-3.58-.59-7.45-1.81-11.11a5.14,5.14,0,0,0,2.29-.65c1.23,3.66,2.88,6.81,4.11,10.46A4.28,4.28,0,0,1,672.34,740ZM661.65,574.79c-1.86.15-3.33-.67-3-2.57-.11-1.4.71-2.87,1.68-2.48,1.43.36,2,2.18,3,3A1.71,1.71,0,0,1,661.65,574.79Zm-5.07-10.85a1.32,1.32,0,0,1-2.33.18c-.47,0-.58-1.36-.62-1.82-.07-.94.79-1.94.71-2.87.64-3.81,2.47-4.42,5.88-2.81,1,.39,2.37.28,3,2.11C661.52,561.2,657.75,561,656.58,563.94Zm6.48-18.8c.08.93-.82,1.47-1.71,2-1-.86-2-1.72-1.66-3.15-.07-.93.32-1.9,1.25-2C662.81,541.88,663.38,543.24,663.06,545.14Zm15.77,176c-1.44-.36-1.51-1.29-1.59-2.22a1.5,1.5,0,0,1,1.29-1.51c1.44.36,1.51,1.29,1.58,2.22C679.72,720.62,679.29,721.12,678.83,721.16Zm-.68-32.31a1.23,1.23,0,0,1-1.28,1.51,2.27,2.27,0,0,1-1.62-2.69c-.08-.93.82-1.47,1.79-1.07C678,686.52,678.55,687.88,678.15,688.85Zm.8-31.48c-.43.5-.35,1.44-.78,1.94-.39,1-1.33,1-2.26,1.11-1-.39-1.51-1.28-.69-2.76,1.26-2,1.54-4.34,1.82-6.7.88-6.64-2.78-11.51-3.73-17.53-.83-4.62-2.6-9.17-2.5-13.87.9-.54,1.4-.11,1.44.36C677.4,631.7,681.19,644.06,679,657.37ZM668.38,511.42c-.94.08-2.33.19-2-1.25-.11-1.39.79-1.93,2.22-1.58.9-.54,1,.39,1.47.82A1.71,1.71,0,0,1,668.38,511.42Zm28.9,223.76c-.93.07-1.47-.83-1.58-2.22-.07-.94.32-1.91,1.25-2a2,2,0,0,1,2,1.72C699.07,734.1,698.68,735.07,697.28,735.18Zm-.13-13.59a.88.88,0,0,1-1.4.11c-2-2.19-1.73-4.09.45-6.13C698.72,717.71,698.4,719.61,697.15,721.59ZM677,525.28c-2.22,1.59-2.83-.24-3-2.1-.18-2.34.68-3.34,3.12-2.13,1,.86,1.9.32,1.79-1.08.43-.5-.07-.93-.61-1.82-4-3-4.49-3.4-1.09-7.89,1.67-2.48-.84-4.62,1.7-8.11,3,7.74,1.72,15.81,7.36,21.93C683.14,526.21,680.12,523.63,677,525.28ZM687,480.41c-.39,1-.85,1-1.36.58-2.44-1.22-1.62-2.69-1.33-5.06C686.81,477.61,687.82,478.47,687,480.41ZM685.82,465c.22,2.8,1.37,5.52-1.67,8.57-2.34-5.91.55-10.83-.35-16.38C688.21,459.68,685.64,462.7,685.82,465Zm11,32c-.93.07-1.4.11-1.93-.78-.69-2.76-.41-5.13,1.2-8.54,2.58,3.08.9,5.56,2.06,8.28C698.61,496.38,697.25,497,696.78,497Zm18.16-31.44c0-.47-.58-1.36-.62-1.83-.61-1.83-.72-3.23-1.41-6C719.34,461.92,719.34,461.92,714.94,465.55Zm9.17,15.22c-.82,1.47-1.79,1.08-3.23.72-1-.86-1.58-2.22-.72-3.22.78-1.94,1.86-.15,2.83.24A1.71,1.71,0,0,1,724.11,480.77ZM743.67,491a3.51,3.51,0,0,1-3.55,2.62A3,3,0,0,1,738,490a52,52,0,0,1,.3-8c.29-2.36.07-5.16-1.95-6.88-4.06-3.9-2.56-8.7-1.49-13,.75-2.4,1.53-4.34-.05-6.56a6.77,6.77,0,0,1,.06-5.16c1.25-2,4-2.2,5.13-.41a4.11,4.11,0,0,1,1.62,2.69c-.31,8,4,15.62,3.77,24.09C747.13,481.3,745.17,486.14,743.67,491Zm8.86-36.34A1.68,1.68,0,0,0,754,455c5.48-1.83,6-1.4,6.28,2.32-.31,8-.3,14.1-.28,20.19.11,1.4-.25,2.83-2.15,2.51-.93.08-1.51-1.28-1.58-2.21l-.52-6.53c-.29-3.73-.59-7.46-4.07-10-.54-.89-1.11-2.25-1.65-3.15C749.84,456.23,749.23,454.4,752.53,454.61Z"/><path class="cls-2" d="M862.45,652.47c-1.54-16.11-2.84-32.51-3.84-48.66a137.65,137.65,0,0,0-3.46-23.26c-3.85-14.58-12.23-24.74-26.66-29.28-7.22-2.41-14.58-3.18-22.18-3.39-14.6.07-29.16.68-43.11,5.57-6.57,2.41-12.86,5.07-18.19,9.54-10.4,8.67-13.54,20.28-13.06,33.23a140.44,140.44,0,0,0,1.72,15c.88,4.26.05,4.06,4.62,3.7,5.4-.16,11-.87,16.4-1.3L773,612.19l-.61-7.8c-.21-2.69-.16-5.4-.1-8.11.46-7.88,5.16-13.39,12.85-15.35a48.17,48.17,0,0,1,16.43-1c6.53.56,11.9,3.39,14,10,3.49,10,4.57,20.2,5.37,30.42.17,2.15-.88,2.5-2.49,2.63-2.69.21-5.13.13-7.82.35-12.91,1-25.58,1.47-38.32,4.64-7.44,1.67-14.6,3.59-21.33,7.36-8,4.43-13.49,10.81-14.94,19.85a66.1,66.1,0,0,0,1.61,27.2,32,32,0,0,0,7,13c8.83,9,19.88,12,31.78,11.83a181.74,181.74,0,0,0,21-1.65c11.22-1.7,21.16-6,28.86-14.72,1-1.16,1.69-2.57,3.8-3.28l.7,8.87c.28,3.5.28,3.5,3.5,3.25l30.92-2.44c1.61-.13,2.38-.73,2.23-2.62a61.24,61.24,0,0,0-1.07-6.67C864.85,676.09,863.38,664.3,862.45,652.47ZM755.66,571.08c.07.81-.7,1.41-1.48,1.74-.77.6-1.37-.16-1.68-.68-.62-1-1.51-2-1.08-3.43,1.32-.37,1.72,1.22,3.06,1.11C755,569.78,755.87,570.25,755.66,571.08Zm9.16,16.59a1.29,1.29,0,0,1-.14,1.64c-2-1.2-2.41-3.06-2.56-4.94.16-1.37.88-2.5.51-3.83a.72.72,0,0,1,.74-.87c.81-.06.85.48,1.16,1a2,2,0,0,1-.16,1.37C763.17,584,763.86,585.86,764.82,587.67Zm5.66-3.69c-.81.07-1.14-.72-1.21-1.53a1.25,1.25,0,0,1,1.28-.91c.54,0,.61.76.92,1.28C771.24,583.38,771,583.94,770.48,584Zm19-9.34a1.85,1.85,0,0,1-2.36,1c-1.39-.43-.64-1.3-.17-2.15.68-1.67.68-1.67.2-4.34a2.6,2.6,0,0,1,2.61,2.23C789.86,572.44,790.23,573.77,789.49,574.64ZM747.34,681.57c-.79.34-1.1-.18-1.41-.7-.65-1.3-1.81-2.29-1.66-3.93.32-2.73-1-5.33-2-7.69s-2-4.71-.58-7.25c.95-1.7-.56-3.75.9-5.76a46.73,46.73,0,0,1,4,16.73,33.05,33.05,0,0,0,1.11,7.22A1,1,0,0,1,747.34,681.57Zm20.1,11.4a1,1,0,0,1-1.16-1c0-.27.21-.83.48-.85.78-.33,1.09.19,1.13.72C768.21,692.37,768,692.93,767.44,693Zm2.37-45.36a9.19,9.19,0,0,0,1.48-5.26c0-.54.46-1.12,1-.89.27,0,1.12.45,1.17,1-.08,2.44-.18,4.61-.26,7,.06.81-.74.87-1.55.94C770.32,650.54,768.83,648.77,769.81,647.61Zm5,45.59c-.62-1,.44-1.38,1-1.69,1.76-1.76,2.13-4,.92-5.49-2.36-2.51-.65-4.81.51-7.34.31.52.89,1,.66,1.57a35.09,35.09,0,0,0,2.33,9c1,2.35.26,3.22-1.89,3.39C776.92,693,775.9,693.93,774.76,693.2Zm6.33,8.16c-1.59.4-3.08-1.38-3-3.28-.12-1.61.62-2.48,2-2.59,1.62-.13,3.11,1.65,3.24,3.26C783.18,700.39,782.43,701.26,781.09,701.36Zm32.79-30.18a29.26,29.26,0,0,1-13.19,4.29c-4.3.34-8.58.95-13.17,1a10.46,10.46,0,0,1-4.08-.22c-6.38-1.93-8.49-4.74-8.77-11.75-.49-6.19,2.15-10.45,8.23-12.28,9.5-2.92,19.18-3.68,28.91-3.91a52.92,52.92,0,0,1,9,.38c1.64.14,2.49.61,2.61,2.23C824.63,660.05,821.64,666.78,813.88,671.18Zm27.79-66c2.65,2.76,1.32,6.39,2.38,9.55C841.75,613,841.21,613,841.67,605.15Zm-3.42-16a1.15,1.15,0,0,1,1.16,1,1.49,1.49,0,0,1-1.28.91.86.86,0,0,1-.87-.75A1.14,1.14,0,0,1,838.25,589.19Zm-5.07,62.62c1.1.18.91,1.28,1,2.08-.2.83.42,1.86-.59,2.75a1,1,0,0,1-.83-.2,3,3,0,0,1-1-2.89C831.9,652.72,832.08,651.62,833.18,651.81ZM835,664.92c-.18,1.09-.7,1.4-1.5,1.47a26.2,26.2,0,0,0-1-6.14C835,661.4,834.9,663.3,835,664.92Zm-16.6-100.68c0-.27-.06-.81.48-.85a1.47,1.47,0,0,1,.91,1.28l-.23.56A1,1,0,0,1,818.42,564.24Zm8.16,75.91a1.53,1.53,0,0,1-1.23-1.79,3.75,3.75,0,0,1,1-.9,3.32,3.32,0,0,1,1.24,2.07A2,2,0,0,1,826.58,640.15Zm-.45-26.2a1.56,1.56,0,0,1,1-1.7c.79-.33,1.61-.13,1.66.41.06.81-.7,1.41-1.76,1.76C826.71,614.44,826.4,613.93,826.13,614Zm11.07,64.86c-.51.31-1.34.11-1.39-.43-.56-3.74-4.27-6.16-4-10.23a1.43,1.43,0,0,1,1.49-1.74c.08,1.07-.06,2.71,1.08,3.43,2.59,2,2.31,5.23,3.3,7.58C838,677.94,837.74,678.77,837.2,678.81Zm-4.84-95.65c-.83-.21-1.43-1-1.2-1.53.45-1.12.35-2.46,1.67-2.84.87.74.42,1.86.75,2.65C833.66,582.51,833.46,583.34,832.36,583.16Zm.93-12.25c-1.9-.12-2.94.5-3.33,2.43a1.16,1.16,0,0,1-1.84.68c-.56-.22-.64-1.3-.14-1.88,1.26-1.18.28-3.27,1.56-4.18,1.26-1.18,2.53,1.15,4.14,1,1.07-.09,2.42-.19,2.25,1.17C835.5,571.55,834.39,571.09,833.29,570.91Zm13.94,118.47c-.8.06-.87-.74-.89-1,0-.54-.37-1.32.73-1.14.53,0,.84.48.91,1.28C848,689.05,847.75,689.07,847.23,689.38Zm.28-6.78c0,.54.11,1.34-.7,1.41-.85-.48-1.43-1-1.25-2.07,0-.54.48-.85,1-.89C847.67,681.23,847.47,682.06,847.51,682.6Zm-.66-8.34a1.23,1.23,0,0,1-.7,1.41c-.8.06-1.12-.45-1.43-1,0-.54-.35-1.05-.12-1.61-.07-.81.12-1.91.9-2.24s1.41.7,1.54,2.32A1.61,1.61,0,0,1,846.85,674.26Zm1.57-31.5c-.36,2.19-1,4.41-.81,6.82.11,1.35-.37,2.2-2,1.79-1.1-.19-2-.66-1-2.36,1.94-2.86,1.72-9.06.93-12.24-.86-4-2.77-7.63-2.86-12.22a12.2,12.2,0,0,0-4.13-7.79c3.25,0,4.49,2.08,5.22,4.45a43.85,43.85,0,0,0,3.5,10C848.87,634.61,848.67,639,848.42,642.76Z"/><path class="cls-2" d="M905.06,515a7.76,7.76,0,0,1,.65-1c.23-.56.71-1.41.42-1.65-1.16-1.32-.85-2.75-.67-4a8.91,8.91,0,0,0-1.11,3.13A4.7,4.7,0,0,0,905.06,515Z"/><path class="cls-2" d="M951.08,665c-.46-2.4-.63-4.55-1.08-7-.38-1.32-1-2.36-3.09-1.38-3.86,2.47-8.14,3.08-12.74,3.17-5.68-.09-10.51-3-11.51-8.83-.5-2.94-1-5.6-1.22-8.56L904.16,431.34c-.3-3.76-.3-3.76-4.07-3.47l-29.84,2.36c-5.38.42-5.15-.14-4.73,5.24l12.24,147.08c2.19,27.69,4.35,55.12,6.81,82.79.78,9.94,5,18.54,13.55,24.36,5.74,4.14,12.34,5.51,19.41,6a77.85,77.85,0,0,0,13.74-.81A62.15,62.15,0,0,0,951.63,689c3.39-1.62,3.39-1.62,2.84-5.09C953.43,677.49,952.13,671.37,951.08,665ZM909,552.77c0,.53-.45,1.12-1,.89a1.68,1.68,0,0,1-1.52-2,1.44,1.44,0,1,1,2.53,1.16ZM907.29,590c.34.78-.45,1.12-1.25,1.18-.54,0-1.08.09-1.41-.7a1,1,0,0,1,1-1.16A1.2,1.2,0,0,1,907.29,590Zm-5.22-53.56c-2-4.72-1.28-9.37,1.36-13.64C903.26,527.38,903.89,531.92,902.07,536.4Zm5.71,59.74c0-.53.14-1.63,1-1.69,1.07-.09,1.16,1,1.2,1.52.07.81-.14,1.64-.95,1.7A1.19,1.19,0,0,1,907.78,596.14Zm-9.46-131.32c1.88-.15,2,2,2.43,3.33a2,2,0,0,1-1.69,2.57c-1.62.12-2.51-.89-2.66-2.77C896.3,466.61,896.42,464.7,898.32,464.82Zm-1.61,13.92a4.13,4.13,0,0,1,1.63-3.37c.23-.56.16-1.37,1-.89.83.2.6.76.38,1.32a16.5,16.5,0,0,1,0,3.52,1.25,1.25,0,0,1-1.5,1.47A1.67,1.67,0,0,1,896.71,478.74Zm3.11,11.93a6.48,6.48,0,0,1-2.27-4.69c-.06-.8.1-2.17,1.47-2,1.1.19,1.43,1,1.24,2.07.13,1.61-.84,3-.44,4.63,1,5.61-.75,11.16-.3,16.8.06.81-.14,1.64-1.24,1.45-.8.06-.87-.74-.93-1.55-.05-4.05.44-8.15.12-12.18C897.07,493.6,896.86,490.91,899.82,490.67Zm1,62.47c-2.07-2.28-2.76-4.12-1.63-6.91C900.51,548.56,901.45,550.11,900.87,553.14Zm-7.23-92.82c1.43,1,2.05,2,1.33,3.14l-.81.07C893,462.81,892.94,461.73,893.64,460.32Zm-.26,7.06a.86.86,0,0,0,.56.22,3,3,0,0,1,1,2.36l-.52.31c-.83-.21-.89-1-1.2-1.53A3.69,3.69,0,0,1,893.38,467.38Zm-.15,4.88c.26,0,1.59-.4,1.73,1.48.11,1.35-1.21,1.72-2.27,2.08-1.34.1-2-.93-2.07-2.28S891.61,472.39,893.23,472.26ZM883,452c-.13-1.62,0-3.52,1.25-4.7a6,6,0,0,0,1.3-4.16,4.2,4.2,0,0,1,1.31-3.89c1.46,4.75,1,8.85.48,12.94-.12,1.91-2,2.06-3.06,2.41C883.18,454.65,882.78,453.06,883,452Zm15.5,122.18c.34.79.11,1.35-.66,2-.51.31-.82-.21-.87-.74a2.07,2.07,0,0,1,.44-1.39C897.62,573.68,898.45,573.89,898.47,574.15Zm-13.3-114.78a1.46,1.46,0,0,1-1.45-1.24,1.23,1.23,0,0,1,1-1.43c.81-.06,1.93.39,2,1.19C886.72,458.43,886,459,885.17,459.37Zm6.36,64.47a.72.72,0,0,1-.74.87c-.27,0-.83-.2-.85-.47-.32-.52.18-1.1.72-1.14A.86.86,0,0,1,891.53,523.84Zm-1.43,19.59c-2-1.46-2.12-2.8-1.71-4.46C890.36,539.9,889.93,541.28,890.1,543.43Zm-12.78-19.06c-1.21-5-.25-10,.69-15.2.55-3.29.49-4.1-3.15-5.71a8.88,8.88,0,0,0,2.39-4c1.29-4.16,1-8.19.63-12.5-.54-3.47-.55-7-1.36-10.44-.79-3.18,1.93-6.37-.74-9.41-.31-.52.45-1.12,1-1.43a2,2,0,0,0-.28-3.49c-.87-.75-1.74-1.49-1.31-2.88.78-3.84,1.54-8,2.32-11.81.18-1.1.66-1.95,2-1.78,1.12.45,1.2,1.53,1.29,2.6a2.85,2.85,0,0,1-1.47,2c-1.57.66-1.46,2-1.6,3.64-.1,2.18-.49,4.1,1.27,5.85.87.75.44,2.13.54,3.48-.67,5.19.32,10.79-.07,16.23-.63,5.74.63,11.32,1.88,16.9.08,1.08.71,2.11.23,3a9,9,0,0,0-.52,7.07,3.58,3.58,0,0,1,.07,1.88,3.53,3.53,0,0,1,1.25-1.12,1.14,1.14,0,0,1,1.68.68c.94,1.55,3.19,2.73,1.5,5.29a6.57,6.57,0,0,0-.76,4.12,4.23,4.23,0,0,1-1.31,3.89c-.71-2.11-.88-4.26-2.64-6a1.88,1.88,0,0,1-.12-.18,8.49,8.49,0,0,0-.88,7c.39,1.59.23,3-1.63,3.37C877.92,525.14,877.61,524.62,877.32,524.37ZM894.2,629.68a.81.81,0,0,0,.51-.31,3.44,3.44,0,0,1,.38,1.32c-.23.56-.17,1.37-1,1.7l-.56-.23A3,3,0,0,1,894.2,629.68Zm-1.67-3.93c-.89-1-.44-2.13.82-3.31.92,1.28,1,2.36,0,3.25ZM882.09,572.2c-.05-.54-.4-1.59.68-1.68.78-.33,1.11.46,1.45,1.24.35,1.06.46,2.4.83,3.72-.18,1.1.79,3.19-.82,3.31-2.15.17-2.05-2-1.62-3.39C883.06,574.29,882.44,573.26,882.09,572.2Zm1.33,13.42c1.69,1,3.35,1.36,2.67,3-.2.83-1,1.43-1.53,1.2C882.62,589.2,883.56,587.5,883.42,585.62Zm4.14,45.66c.16-1.36,0-3.51,1.87-3.66,1.87-.42,2.28,1.44,2.39,2.79.15,1.88-.57,3-2.19,3.14A2,2,0,0,1,887.56,631.28Zm2.37,6c.76-.6.83.2,1.14.72a4.12,4.12,0,0,1,2.14,3.08,1.68,1.68,0,0,1-1.18,2.26,1.26,1.26,0,0,1-1.72-1.22,16.54,16.54,0,0,1-.54-3.48C889.46,638.17,889.14,637.65,889.93,637.32Zm6.46,33.85c-1.06.35-1.39-.43-1.45-1.24-.45-5.65-3-10.85-2.93-16.54.14-1.64-1-2.9-1.17-4.51-.35-1-.15-1.88.91-2.24,1.32-.37,1.69,1,1.76,1.76a6.49,6.49,0,0,1-1.5,5c3-.24,3.17,2.45,3,4.09.31,4,1.44,8,2,12C897.13,670.3,897.19,671.1,896.39,671.17Zm.32-33.57c-1.09-.19-2.46-.35-2.56-1.7-.15-1.88,1.21-1.71,1.48-1.74,1.62-.12,2.67-.48,2.77.87S898.06,637.49,896.71,637.6Zm-6.71-92a15,15,0,0,0,3.52,3.51,1.65,1.65,0,0,1,.42,1.86c-.47.84-1.3.64-2.11.7C888.25,550.88,887.88,549.56,890,545.61Zm6.53,52a4.57,4.57,0,0,1-.29-3.76C897.69,595.05,898,596.1,896.53,597.57Zm5,22.6c-.83-.21-1.68-.68-1.72-1.22-.06-.8,1-1.43,1.78-1.49a1.23,1.23,0,0,1,1.18,1.26A1.44,1.44,0,0,1,901.56,620.17Zm.16-4.88c-1.1-.19-3,0-3.4-1.9-1.12-4-2.25-7.94-1.55-12.86a4.28,4.28,0,0,1,1.91,3.64,5.91,5.91,0,0,0,1.93,3.9c1.43,1,1.84,2.83,2,4.44C902.93,613.57,902.79,615.2,901.72,615.29Zm-3.33-49c-1.18-1.25-.68-1.83-.74-2.64s-.44-2.13.88-2.51,2.87-1.3,4.26-.87a.57.57,0,0,1,.58.49c0,.54-.19,1.1-.45,1.12C900.52,562.36,899.57,564.06,898.39,566.31Zm18.05,101.92c1.75,5,3.48,9.74,3.07,14.91-.24.29-.47.85-.72,1.14-1.9-.12-2.28-1.45-2.13-3.08a8.34,8.34,0,0,0-2.77-7.63c-.31-.51-.91-1.28-.67-1.57,1.45-2.28-.6-4.28-.19-5.93a9,9,0,0,0-1.63-6.91c-.6-.76-.15-1.88-.23-3,.36-5.71.72-11.41-.8-17-1.23-5.31-1.14-11-2.62-16-.1-1.35-.75-2.65,0-3.52,1.47-2,.78-3.85.34-6-.39-1.59-.5-2.93-2.15-3.34a2.85,2.85,0,0,1-1.76-1.76c-.09-1.07-.17-2.15.86-2.77,1.32-.38,1.92.39,2.28,1.44,1.37,3.68,2.76,7.63,4.14,11.31.64,1.3-.1,2.17-.85,3a2,2,0,0,0,.28,3.5c.56.22,1.41.7,1.18,1.25-2.17,3.42,1,6.15.74,9.42-.26,3.53.29,7,.29,10.52.34,4.3.66,8.34,2.59,12.24a8.8,8.8,0,0,0,3,3.55C915.32,664.26,915.38,665.07,916.44,668.23Zm11.36,10.2c-2.49-4.13-2.58-8.73-3.48-13.25C927.59,669,929,673.46,927.8,678.43Z"/><path class="cls-2" d="M1096.76,677l-.93-1.55c-6.82-7.58-12.88-15.76-19.2-23.91-8.71-10.95-17.44-22.16-26.42-33.09-2.69-3.3-2.69-3.3-.24-6.47,7.55-10.61,14.83-21.19,21.82-32A76,76,0,0,0,1083,533.62c-.36-4.57-.36-4.57-4.93-4.21-9.7.5-19.38,1.26-29.06,2-6.72.53-6.72.53-6.71,7.56a53.64,53.64,0,0,1-5.72,23.45c-6.51,13.49-15,25.8-23.22,38.35a3.63,3.63,0,0,1-3.12,1.6l-9.41.74c-6.45.51-5.58,1.25-6.11-5.47l-13.62-172.6c-.32-4-.32-4-4.35-3.72l-31.45,2.48c-4.3.34-4.06.05-3.7,4.62l20.3,257.29c.32,4,.32,4,4.35,3.72L998,687c3.76-.3,3.76-.3,3.46-4.06L997.92,638c-.4-1.59.64-2.22,2-2.32l12.91-1a3.37,3.37,0,0,1,3.08,1.38c3.65,5.12,7.82,9.93,11.47,15.06,7.79,9.66,15.32,19.35,22.85,29a5.3,5.3,0,0,0,5.32,2.29l40.06-3.16C1097.2,679.13,1097.41,678.3,1096.76,677ZM966.31,436.65c.77,2.92,2.2,3.89,4.35,3.72,1.08-.09,1.68.68,1.49,1.77-.16,1.37-1,.9-1.84.69C965.43,442.67,964.56,441.93,966.31,436.65Zm-12.07-5.54c1.08-.08,2,1.47,3.31.82s.91-2.23,2.19-3.14c1.06,3.16,2.37,6,.72,9.14-1.43-1-1-2.9-2.2-3.89-.87-.74-2.48-.61-2.38.73.17,2.15-1.87,3.67-1.43,5.8C951.48,437.28,952.86,434.2,954.24,431.11ZM964.6,510.5c.06.81.64,1.31,1.74,1.49,1.39.43,2.64-.75,5.11-.4a5.55,5.55,0,0,0-2.29,5.32c0,.54-.45,1.11-1,.89-.81.06-1.66-.41-1.45-1.24,1.15-2.53-.21-2.69-1.89-3.37-2.53-1.15-3.18-6-1.42-7.73a.27.27,0,0,0,.25-.29c1-1.16,3.06,1.11,3.72-.83.45-1.12-.19-2.42.8-3.59a1.66,1.66,0,0,1,1.05-.35c.29.25.6.77.89,1a5.09,5.09,0,0,1-2.51,5.88c-.52.31-1.57.67-2.09,1C964.45,508.62,964.24,509.45,964.6,510.5Zm13.21,6.27c-1.64-.14-1.72-1.22-2.06-2-.89-4.52-2.06-9-3-13.56-.35-1.05.08-2.44.24-3.8a1.5,1.5,0,0,1,1.28-.92,1.27,1.27,0,0,1,1.45,1.24C974.93,504.28,977.3,510.31,977.81,516.77Zm0,24.07c1.08-.08,1.68.68,1.49,1.78-.16,1.36-1,.89-1.83.68-4.89-.15-5.76-.89-4-6.17C974.23,540,975.66,541,977.81,540.84Zm-12.65,55.65c.35,1-.7,1.4-1.49,1.74a1.56,1.56,0,0,1-1.74-1.49c-.15-1.88.82-3.31,1.52-4.72.81-.06,1.55-.93,2.16-.17.58.5.64,1.3-.15,1.64A2.2,2.2,0,0,0,965.16,596.49Zm-4.27-6.16s.22-.56.49-.58c1.35-.1.93,1.55,1.78,2C962.09,591.86,961,591.68,960.89,590.33ZM971.13,655c1.38.43,1.74,1.49,1.33,3.14C971,657.16,970.7,656.38,971.13,655Zm-1.34-27.22c-.29-.24-.85-.47-.89-1,0-.27.76-.6,1-.62s.58.49.87.74C970.85,627.42,970.6,627.71,969.79,627.77Zm-5.1-71.55c-1.25-2.07-1-2.63,2-5.84.44,2.13,1.66,3.93.47,5.91C966.14,557.45,965.33,557.52,964.69,556.22Zm2-12.34c2.28,1.45.77,2.92.63,4.55C964.77,547,966.8,545.23,966.69,543.88Zm-1.28-9.36c-.87-.75-2.48-.62-2.38.73.17,2.15-1.87,3.66-1.43,5.79-3-3.28-1.59-6.37-.21-9.45,1.08-.09,2,1.46,3.31.82s.91-2.24,2.19-3.15c1.06,3.16,2.37,6,.72,9.14C966.18,537.43,966.57,535.51,965.41,534.52Zm-8.18-18c-1.56-2.59-1.15-4.24-.51-6.46C958.29,512.89,958.29,512.89,957.23,516.5Zm3.11,5.16c2.07,2.27,3.09,4.9.63,8.07C960.74,526.77,959.21,524.46,960.34,521.66Zm3.33-19.47c-2-1.46-2.92-2.74-2-5,.2-.83.38-1.92,1.75-1.76a2.25,2.25,0,0,1,1.78,2C965.32,499.09,964.62,500.49,963.67,502.19Zm-6.13-46.45c-1.25-2.06-1-2.62,2-5.83.44,2.13,1.66,3.92.47,5.91C959,457,958.18,457,957.54,455.74Zm2-12.33c2.28,1.44.77,2.91.63,4.55C957.62,446.54,959.65,444.76,959.54,443.41Zm-8.1,34.46c.61-2.49,3.14-1.33,4.67-2.54.24-.29.85.48,1.16,1,.06.81-.12,1.91-.66,1.95-3.31-.82-2,2.59-3.24,3.5a.84.84,0,0,0-.52.31C951.67,480.82,950.51,479.83,951.44,477.87Zm7.15,100.47c.61-2.48,3.14-1.33,4.67-2.53.25-.29.85.47,1.16,1,.06.8-.12,1.9-.66,1.94-3.31-.82-2,2.59-3.24,3.5a.89.89,0,0,0-.52.32C958.82,581.3,957.66,580.31,958.59,578.34Zm3.93,56.77c.19-1.1-.79-3.18,1.07-3.6,1.6-.4,1.52,2,2.14,3.08,1.83,2.56-.38,5.44.64,8.06,1,2.36,3.07,4.63,1.4,7.47-.46,1.11,1,2.62-.18,4.61-.86-4-1.94-7.42-2.77-11.15C964.31,640.65,961.7,638.42,962.52,635.11Zm5.3,22.58c2,1.46,1.89,3.36,1.5,5.29C968.39,661.43,967.45,659.88,967.82,657.69Zm6.57,18.14c-1.57.67-3.51,0-3.64-1.6-.21-2.69-1.23-5.32-.39-8.36.77,2.92,3.09,4.9,4.36,7.23C975.32,673.87,976,675.17,974.39,675.83Zm7.77,2.37c-.17,1.36-.93,2-2,1.51-1.37-.16-1.16-1-.69-1.84,1-1.16.64-2.21.29-3.27a1.83,1.83,0,0,1,1.15-2.52A12.71,12.71,0,0,1,982.16,678.2Zm6.76,0c-.47.85-.93,2-2,1.79-1.37-.17-1.48-1.51-1.56-2.59.32-2.73-.92-4.79-1.38-7.19-.17-2.15-1.13-4-4-2.93-.51.31-1.32.37-1.63-.14-1.58-2.85-3.11-1.65-5.07.94.22-4.08,2-5.3,4.54-4.15,4.21,1.84,4.47,1.82,4.65-2.8,0-.53.21-.83.41-1.65,2.28,1.44.36,4.57,2.89,5.72,1.59-.4.62-2.48,2.45-3.17,1.31,2.87,1.57,6.1,2.09,9.31A8.69,8.69,0,0,1,988.92,678.2Zm-15.8-83.69c1.1.18,2.21.63,2.3,1.71l.65,8.33c-5.42-3.63-7.52-9.68-5.75-14.69,1.12.45.66,1.57.72,2.38C971.42,593.56,971.77,594.61,973.12,594.51ZM986.66,653c-1.43-1-1.54-2.31-1.64-3.65C988.06,650.14,988.06,650.14,986.66,653Zm2,1.47c.23,3,.23,3-1.53,4.72C986.19,657.32,987.47,656.41,988.67,654.42ZM985,638.48c-.49.58-1.32.37-1.9-.12-1.2-1.53-2.14-3.08-1.52-5.56,1.47,1.5,2.63,2.49,3.81,3.75C985.94,637.05,985.74,637.88,985,638.48ZM982.17,603c-1-2.36-3.31-4.34-1.71-8C982.31,597.84,982,600.57,982.17,603Zm.41,25.67c.35,1.05-.42,1.65-1.18,2.25a55.69,55.69,0,0,1-2.93-6.26A7.08,7.08,0,0,1,982.58,628.66ZM978,615.76c-.51.31-.83-.21-.87-.74s-.1-1.35.43-1.39c.79-.33,1.1.18,1.14.72C978.8,615.16,978.85,615.7,978,615.76Zm1.48,25.58c1.08,3.44,2.7,6.82,1.92,10.67-3-6.53-3.27-14.08-5.44-20.94C979.44,633.5,978.68,637.62,979.52,641.34Zm-6.74-16.78c-.84-.47.27-3.54,1.32-3.89a1.23,1.23,0,0,1,1.43,1c.44,2.13,1.15,4.24.82,7C974.63,627.39,974.21,625.53,972.78,624.56ZM986.59,611c-.22.56-.47.85-1,.62-.27,0-.56-.23-.6-.76.23-.56.5-.58,1-.63C986.26,610.24,986.82,610.47,986.59,611Zm-3.15-29.78c-.83-.21-1.89.15-2-.93a2.05,2.05,0,0,1,1.4-2.81c1.34-.11,1.45,1.23,1.76,1.75C985,580.58,984.51,581.16,983.44,581.25Zm7,54.1c1.45,1.23,1.8,2.29.29,3.76A3.77,3.77,0,0,1,990.41,635.35Zm-2.24-35.27c1.38.43.66,1.57.48,2.67A3.18,3.18,0,0,1,988.17,600.08Zm5,45.6c-2-.93-1.81-2.29-1.44-4.48C992.61,642.74,993.51,643.76,993.12,645.68Zm-5.93-58a1.28,1.28,0,0,1-1.45-1.24,1.48,1.48,0,0,1,1.78-1.5,1.83,1.83,0,0,1,1.2,1.53A1.49,1.49,0,0,1,987.19,587.72Zm-1.11-17.5c-2.6,1.29-4.87,3.36-8.25,1.73-1.1-.18-2.91.77-4.24,1.15-1.55.93-1.42,2.54-.77,3.85,1.66,3.92,2,8,2,12.28.08,1.07.43,2.13-.58,3-2-.93-1.82-2.56-1.7-4.47.15-4.88-1.57-9.61-2.78-14.66-.07-.8-1.22-1.79-1-2.62.37-2.19-3.91-1.59-1.93-3.9.72-1.14,2-1.79,3-3.22.91,1.28,1.8,2.29,1.62,3.39-.86,2.78.79,3.19,3,3.29,2.71.05,5.73.63,8-1.72.49-.58,1.57-.66,2.35-1a1.82,1.82,0,0,1,2.53,1.15C987.65,569.55,986.87,569.89,986.08,570.22ZM986,552.1c0,.27,0,.54-.22.56l-4.71,2c-.77.6-1.93-.39-2.53-1.15,1-1.7,2.58-1.56,3.66-1.64,1.59-.4,2.62-1,1.15-2.53-.62-1-.93-1.55.39-1.92.79-.33,1.86-.42,2,.66A20.16,20.16,0,0,1,986,552.1Zm-2.72-20.89a1.89,1.89,0,0,1-2.08-2.27,2.1,2.1,0,0,1,1.71-2.3c1.64.14,1.21,1.53,1.54,2.32C984.24,529.79,984.62,531.11,983.28,531.21Zm-4.35-61.47c-2.6,1.29-4.87,3.36-8.25,1.74-1.1-.19-2.91.77-4.24,1.14-1.55.94-1.42,2.55-.78,3.85,1.67,3.93,2,8,2.05,12.29.09,1.07.44,2.12-.57,3-2-.93-1.82-2.57-1.7-4.47.15-4.88-1.57-9.61-2.78-14.66-.07-.8-1.23-1.8-1-2.62.37-2.2-3.91-1.59-1.93-3.91.72-1.14,2-1.78,3-3.21.91,1.28,1.8,2.29,1.62,3.39-.86,2.77.79,3.18,3,3.28,2.71.06,5.73.63,8-1.71.49-.58,1.57-.67,2.35-1a1.83,1.83,0,0,1,2.53,1.15C980.5,469.08,979.72,469.41,978.93,469.74Zm-.08-18.11c0,.26,0,.53-.22.55l-4.71,2c-.77.6-1.93-.39-2.53-1.15,1-1.7,2.58-1.56,3.66-1.65,1.59-.39,2.62-1,1.15-2.52-.62-1-.93-1.55.39-1.93.79-.33,1.86-.41,1.95.66A20.26,20.26,0,0,1,978.85,451.63Zm15,162.61c-1-2.09-2.22-4.15-1.11-7.22,1.54,2.32.9,4.53,2.89,5.73.85.47,1.45,1.24.44,2.13A1.43,1.43,0,0,1,993.88,614.24Zm4.54,12.9a1.49,1.49,0,0,1-1.21-1.53c-.41-1.86-.29-3.76-2-5.25-.61-.76-.11-1.34.65-2a1.09,1.09,0,0,1,1.66.42C999.23,620.31,999.57,624.61,998.42,627.14Zm7.2-18.42c0-.27.74-.88.74-.88a1.84,1.84,0,0,1,1.19,1.26,3.47,3.47,0,0,1-1,3.87c-.75.87-2.15.17-3.56-.53C1003.62,610.77,1005.77,610.6,1005.62,608.72Zm4.8,19.64c-.21.82-.42,1.65-1.24,1.45s-.87-.75-.91-1.28c.32-2.74-.39-4.84-3.18-6,1-1.43,2-2.32,3.2-4C1009.14,622.5,1011,625.07,1010.42,628.36Zm50,16.07c.91,1.28.46,2.4-.24,3.81a1.15,1.15,0,0,1-1.84.68c-.85-.47-1.72-1.21-1-2.35A3.75,3.75,0,0,1,1060.38,644.43Zm-8.93-6.87c.16-1.36.33-2.73,2.31-1.53.27,0,.29.25.58.49.83.21,1.47-2,2.4-.46a2.3,2.3,0,0,1-1.65,3.11c-1.34.1-1.21,1.72-2.54,2.09A3.34,3.34,0,0,1,1051.45,637.56Zm0-57.89c-.78.33-.85-.48-.89-1-.29-.25-.06-.81.48-.85.8-.07.84.47,1.16,1C1052,579.36,1052,579.63,1051.48,579.67Zm12.71-7c-.79.34-1.12-.45-1.43-1a12.89,12.89,0,0,1-.88-7.78c1.78,2,2.26,4.69,3,7.34C1065.22,572.09,1065,572.65,1064.19,572.71Zm-4.42-18.31c2.9,2.47,2.9,2.47.73,5.89C1060.33,558.14,1060.48,556.51,1059.77,554.4Zm-.83-10.49c-.06-.81-.1-1.34.7-1.41s1.16,1,.93,1.55c-1.11,3.07.37,4.57,3.37,4.88a1.53,1.53,0,0,1,1.22,1.79,1.73,1.73,0,0,1-1.78,1.5c-1.36-.17-2.46-.35-4.09-.49A75.52,75.52,0,0,1,1058.94,543.91Zm-.06,30c2,1.2,1.57,2.86,1.95,4.18.64,1.3.77,2.91,2.65,2.77a.94.94,0,0,1,.91,1.28c-.72,1.13-.86,2.77-2.74,2.92-.81.06-1.14-.72-1.18-1.26C1059.67,580.65,1058.61,577.48,1058.88,573.94Zm-11.12-27.79c.22-.56.45-1.12,1.26-1.19a1.16,1.16,0,0,1,1.15,1c.78,2.91,3.16,5.7,1,8.85-.74.87-.41,1.65-.05,2.71.73,2.37.73,2.37-.7,4.92C1047.28,557.27,1047.12,551.88,1047.76,546.15Zm.15,36.31c-.8-1.65-2.33-3.08-.72-5.7C1048.72,578.7,1047.56,580.65,1047.91,582.46ZM1045,569.09s.51-.31.53,0c1.16,1,1.25,2.06.55,3.47C1044.35,571.57,1044.27,570.5,1045,569.09Zm1.35,34.25c-.11-1.34.09-2.17,1.42-2.55,1.36.17,2,.93,1.78,2a1.93,1.93,0,0,1-1.71,2.3C1046.22,605.51,1046.38,604.15,1046.32,603.34Zm-4.32-17c1.1.18,2.19.36,1.76,1.75a5.06,5.06,0,0,1-1.65,3.11c-1.42-1-1-2.09-1.06-3.16C1041,587.26,1040.64,586.2,1042,586.37Zm-3.65,5.16c.33.78-.14,1.63-.88,2.5a2.1,2.1,0,0,1-1.16-1c-.07-.81.12-1.9.9-2.24C1037.73,590.49,1038.29,590.72,1038.35,591.53Zm-5.52,2.05c-.7,1.41-2,2-2.16,3.42a6.83,6.83,0,0,0,1.12,4,25.09,25.09,0,0,1,1.51,8.81c.19,2.42,1.41,4.21,1.07,6.68,0,.53.12,1.61-.95,1.69-.81.07-1.14-.72-1.19-1.26-.72-2.37-1.72-4.73-1.33-6.65.57-3-.42-5.38-1.18-8-1.37-3.68-.86-7.5-2.25-11.45C1029,592.54,1030.89,592.92,1032.83,593.58Zm-14.67,36.87c-3.13-1.92-2.45-3.59-1.55-5.83C1018.11,626.4,1018,628,1018.16,630.45Zm10.21-11.09c-1.26,1.18-1.67,2.84-2.35,4.52-1.21,1.72-1.67,2.84.84,3.72.85.47.62,1,.15,1.88-1.92,3.13-1.44,5.8,1.48,8.54,1.74,1.49,1.69,4.2,2.39,6.3.27,0-.22.56-.47.85-.52.32-.81.07-1.1-.18-1.51-2-3-3.82-4.52-5.87-.29-.24-.58-.49-.6-.76,1-3.87-2.64-6-3.18-9.49a6,6,0,0,1-.3-3.76c.39-1.93.51-3.83-1.73-4.73a1.41,1.41,0,0,1-.46-2.4c1.51-1.48,1.14-2.8.74-4.39-.46-2.4-.63-4.55-1.61-6.64-1.55-2.58,0-3.78,2-5.83,1.12,4,.86,7.5,2.44,10.36.35,1,.75,2.64,2.07,2.27,1.3-.65,1.2-2,.58-3-.32-.51-.36-1.05.38-1.92a31.17,31.17,0,0,1,4.09,7.25A2.94,2.94,0,0,1,1028.37,619.36Zm8.68,7.16c0,2.71-1.09,3.34-3.32,2.43a9,9,0,0,1-2.82-1.4c-1.14-.72-1-1.82.64-2.21,1.86-.42,2.29-1.81,2.74-2.93.21-.82.44-1.38,1.26-1.18,1.1.19,1.16,1,1.21,1.53a5,5,0,0,0-.12,1.9C1036.7,625.47,1037,626,1037.05,626.52Zm-2.12-47.44c1.18,1.26,1,2.89,2,4.17.58.5.64,1.31-.15,1.64-1,.62-1.63-.14-2-.93C1033.84,582.41,1034.25,580.76,1034.93,579.08Zm1.35,20.45a1.71,1.71,0,0,1,1.21-1.72c1.06-.35.61.77,1.19,1.26.33.79-.19,1.1-.73,1.14S1036.34,600.34,1036.28,599.53Zm3.92,18.9a.71.71,0,0,1-.74.87c-.29-.25-.58-.49-.35-1,0-.27.2-.83.76-.61A.52.52,0,0,1,1040.2,618.43Zm-2-14.72a5.49,5.49,0,0,1,.09,4.59C1037.1,606.5,1036.45,605.2,1038.23,603.71Zm2,32.57a2.46,2.46,0,0,1-.26-3.23c2.27-2.07,1.55-4.44,1.06-7.11,1.37.16,2.22.63,1.72,1.21-1.15,2.53.34,4.31.78,6.44.11,1.34.73,2.37-.57,3A2,2,0,0,1,1040.26,636.28Zm7.59,24.29c-.8.06-1.13-.72-1.2-1.53.23-.56.46-1.12,1-1.16.81-.06,1.14.72,1.21,1.53A1,1,0,0,1,1047.85,660.57Zm4-.86c-1.21-1.52-1.91-3.63-4.15-4.54-.56-.23-.08-1.07.14-1.63.45-1.12,1.78-1.49,1.92-3.13a3,3,0,0,1-2.92-2.75,1.85,1.85,0,0,0-2-1.73c-2.94.5-2.28-1.44-2.41-3.06a5.73,5.73,0,0,1,.66-1.94c.47-.85.62-2.48,1.73-2,1.68.68.69,1.84,0,2.71-.23.56-.44,1.39.12,1.61,2.73.33,2.7,3.31,4.69,4.5,2,1.47,2.27,1.45,4.28-.61.91,1.28.81,3.46,2.24,4.43s2.61,2.22,1.64,3.65c-1.22,1.72-1.81,4.47-4.77,4.71C1052.69,660.19,1051.87,660,1051.85,659.71Zm8.2,14.78c-.75.87-1.53,1.2-2.4.46-1.72-1.22-3.73-2.68-3.68-5.39l-.08-1.08c2.35-1,1.69-2.57,1-4.14a2,2,0,0,1,.45-1.12,1.41,1.41,0,0,1,1.12.46,3.76,3.76,0,0,1,.66,1.57c.21,2.69.43,5.37,3,7.33A1.66,1.66,0,0,1,1060.05,674.49Zm4.23-4.67c-1.5-1.77-3.75-3-4.75-5.3a5.32,5.32,0,0,1-.77-2.92,1.46,1.46,0,0,1,1.28-.91c.51-.31.81-.06,1.12.45,1.28,2.61,2.59,5.48,3.88,8.08C1064.79,669.51,1064.52,669.53,1064.28,669.82Z"/><path class="cls-2" d="M1077.43,651.5c-.82-.21-1,.62-1,1.16,0,.27.36,1.06.63,1,.82.21.76-.6,1-1.16C1078,652,1078,651.46,1077.43,651.5Z"/><path class="cls-2" d="M1010.6,668.4c-1.06.36-.68,1.68-.35,2.47.37,1.32-.33,2.73,1.12,4a4.49,4.49,0,0,0,1-4.41C1012.31,669.62,1012.19,668,1010.6,668.4Z"/><path class="cls-2" d="M1048.41,616.19c-1.35.1-1,1.43-.89,2.5.07.81-.1,2.17,1.25,2.07,1.07-.09,1.26-1.18,1.17-2.26S1049.75,616.08,1048.41,616.19Z"/></svg>