<svg id="Layer_2" data-name="Layer 2" xmlns="http://www.w3.org/2000/svg" viewBox="0 0 1200 1000"><defs><style>.cls-1{fill:#f47959;}.cls-2{fill:#faab65;}.cls-3{fill:#b0ce99;}.cls-4{fill:#178fa7;}.cls-5{fill:#ba6d40;}.cls-6{fill:#6c756b;}</style></defs><title>Beans Talk</title><path class="cls-1" d="M765.93,208.51a66.68,66.68,0,1,0,133.36,0Z"/><path class="cls-2" d="M899.29,208.51a66.68,66.68,0,0,0,133.36,0Z"/><path class="cls-2" d="M632.57,208.51a66.68,66.68,0,1,0,133.36,0Z"/><path class="cls-1" d="M499.21,208.51a66.68,66.68,0,0,0,133.36,0Z"/><path class="cls-2" d="M365.85,208.51a66.68,66.68,0,0,0,133.36,0Z"/><path class="cls-1" d="M365.85,208.51a66.68,66.68,0,1,1-133.36,0Z"/><polygon class="cls-3" points="232.48 208.51 297.03 31.33 968.11 31.33 1032.66 208.51 232.48 208.51"/><rect class="cls-4" x="342.99" y="519.05" width="289.58" height="121.93"/><circle class="cls-2" cx="725.94" cy="595.26" r="45.72"/><circle class="cls-2" cx="817.39" cy="595.26" r="45.72"/><circle class="cls-5" cx="771.66" cy="516.04" r="45.72"/><circle class="cls-5" cx="863.11" cy="516.04" r="45.72"/><circle class="cls-2" cx="908.83" cy="595.26" r="45.72"/><rect class="cls-3" x="266.78" y="640.98" width="731.58" height="327.68"/><path class="cls-1" d="M708.29,826c23.06-23.06,21.61-61.9-3.24-86.75S641.36,712.9,618.3,736,527.49,868.64,551.55,892.7,685.23,849,708.29,826Z"/><path class="cls-6" d="M1051.69,209.25c0-.25,0-.49,0-.74h0a19.13,19.13,0,0,0-1.13-6.52L986,24.81a19.05,19.05,0,0,0-17.9-12.53H297a19.05,19.05,0,0,0-17.9,12.53L214.58,202a19,19,0,0,0-1.13,6.52h0c0,.25,0,.49,0,.74a2.81,2.81,0,0,0,0,.29,85.67,85.67,0,0,0,152.39,52.77,85.59,85.59,0,0,0,133.36,0,85.59,85.59,0,0,0,133.36,0,85.59,85.59,0,0,0,133.36,0,85.59,85.59,0,0,0,133.36,0,85.67,85.67,0,0,0,152.38-52.77A2.83,2.83,0,0,0,1051.69,209.25Zm-46.24-19.75h-87.1V50.39h36.43ZM384.9,50.39h95.26V189.5H384.9Zm133.36,0h95.26V189.5H518.26Zm133.36,0h95.26V189.5H651.62Zm133.36,0h95.26V189.5H785Zm-474.62,0h36.43V189.5H259.68ZM299.17,256.14a47.69,47.69,0,0,1-43.63-28.54h87.25A47.69,47.69,0,0,1,299.17,256.14Zm133.36,0a47.67,47.67,0,0,1-43.62-28.54h87.24A47.69,47.69,0,0,1,432.53,256.14Zm133.36,0a47.67,47.67,0,0,1-43.62-28.54h87.24A47.68,47.68,0,0,1,565.89,256.14Zm133.36,0a47.68,47.68,0,0,1-43.62-28.54h87.24A47.67,47.67,0,0,1,699.25,256.14Zm133.36,0A47.68,47.68,0,0,1,789,227.6h87.24A47.67,47.67,0,0,1,832.61,256.14Zm133.36,0a47.68,47.68,0,0,1-43.62-28.54h87.25A47.69,47.69,0,0,1,966,256.14Z"/><path class="cls-6" d="M354.42,500H343a19.05,19.05,0,0,0-19.05,19V621.93H285.83V270.67a19.05,19.05,0,1,0-38.1,0v698a19.05,19.05,0,0,0,19,19.05H998.36a19.05,19.05,0,0,0,19-19.05v-698a19.05,19.05,0,1,0-38.1,0V621.93H967.84a64.72,64.72,0,0,0-42.14-89.21A64.75,64.75,0,0,0,817.39,470.2a64.75,64.75,0,0,0-108.31,62.52,64.72,64.72,0,0,0-42.14,89.21H651.62V519.05a19.05,19.05,0,0,0-19-19H621.14m314.37,95.26a26.68,26.68,0,1,1-26.67-26.67A26.71,26.71,0,0,1,935.51,595.26Zm-144.79,0a26.67,26.67,0,1,1,26.67,26.67A26.69,26.69,0,0,1,790.72,595.26Zm72.39-105.89A26.67,26.67,0,1,1,836.44,516,26.69,26.69,0,0,1,863.11,489.37Zm-91.44,0A26.67,26.67,0,1,1,745,516,26.7,26.7,0,0,1,771.67,489.37Zm-72.4,105.89a26.67,26.67,0,1,1,26.67,26.67A26.69,26.69,0,0,1,699.27,595.26ZM583,500H544.93m-38.1,0h-38.1m-38.11,0h-38.1M362,561V538.1H613.52v83.83H362V561ZM979.31,949.61H285.83V660H979.31Z"/><path class="cls-6" d="M536.13,895.11a12.24,12.24,0,0,0,1.85,5s.95,1.07,2.06,2.14S555,913,569,913c17.86,0,41.47-7.6,71.8-22.92,32.06-16.19,68.46-40.16,82.88-54.58,23.49-23.5,28-59.21,14-89.11a22.85,22.85,0,0,1,11.35,6.15A19,19,0,0,0,776,725.59a61.51,61.51,0,0,0-66.66-13.19c-30.37-21.62-71.1-21.08-98.37,2.31-8.6,7.37-15.08,15.63-24.57,29.44-5.26,7.66-13.07,20-29.79,59.61C556.63,803.76,531.94,862.25,536.13,895.11Zm165-83.86c-3.33,4.29-9.48,8.55-21.58,17-9.83,6.85-21.83,14.52-34.62,21.88l-15.49-15.49a20.29,20.29,0,0,0-28.69,28.69l6.24,6.24c-24.79,10.93-38.36,12.77-43.53,12.23.76-5.47,1.94-12.87,3.81-21.53A283.82,283.82,0,0,1,582.9,810a248.52,248.52,0,0,1,35.76-58.83q8.61,11.77,17.21,23.56A20.29,20.29,0,0,0,664.56,746q-9.13-9.69-18.26-19.37c21.42-5.09,43.65,2.76,56.23,19.78C718.77,768.45,712.28,796.82,701.08,811.25Z"/></svg>