<svg id="Layer_2" data-name="Layer 2" xmlns="http://www.w3.org/2000/svg" viewBox="0 0 1200 1000"><defs><style>.cls-1{fill:#b0ce99;}.cls-2{fill:#faab65;}.cls-3{fill:#178fa7;}.cls-4{fill:none;stroke-width:49px;}.cls-4,.cls-5{stroke:#6c756b;stroke-miterlimit:10;}.cls-5,.cls-6{fill:#6c756b;}.cls-5{stroke-width:0.75px;}</style></defs><title>Beans Talk</title><path class="cls-1" d="M636,581.47a94.59,94.59,0,0,1,40.68-164.93,118.1,118.1,0,0,1,105-172.24,119.09,119.09,0,0,1,21.18,1.93q.48-10.65.73-20.75l-1.13-83.25c-1.3-23.93-3-38.07-3-38.66h0l0,0c-1.62-.15-368.43-36.24-575.92,167.29S53.5,847.56,53.78,849.17l-.1.1a562.75,562.75,0,0,0,159.64,2.21C418.77,824.66,550.58,689.62,596.93,636.9L545,609.36Z"/><path class="cls-2" d="M940.94,564.46,1141.57,765.1c15,15,14.92,39.77-.27,55h0c-15.18,15.18-39.92,15.3-55,.26L885.71,619.69Z"/><path class="cls-1" d="M524.62,402.43a199.28,199.28,0,0,0,111,178.71q50.61-67.77,101.2-135.55,33-99.68,66-199.36c.32-7.1.55-14,.72-20.75l-.07-5.84a198.8,198.8,0,0,0-79.55-16.52C613.85,203.12,524.62,292.35,524.62,402.43Z"/><path class="cls-3" d="M723.92,137c-146.58,0-265.41,118.83-265.41,265.42S577.34,667.85,723.92,667.85,989.33,549,989.33,402.44,870.5,137,723.92,137Zm0,464.72c-110.07,0-199.3-89.23-199.3-199.3s89.23-199.31,199.3-199.31,199.31,89.23,199.31,199.31S834,601.74,723.92,601.74Z"/><path class="cls-4" d="M596.93,636.9a641.93,641.93,0,0,0,144.78-206c62.2-141.62,56.61-269.75,49.82-331"/><path class="cls-5" d="M1157.4,749.26,966,557.89a286,286,0,0,0,45.71-155.47c0-123.41-78.09-228.91-187.44-269.73-.93-14.7-1.95-25.09-2.55-30.62A22.43,22.43,0,0,0,801.5,81.23C786,79.75,419.31,47.38,207.82,254.83c-49.52,48.6-89.6,110.38-119.12,183.61-23.4,58-40.25,123.35-50.1,194.18-15,107.63-9.07,195.41-7.3,215.91A22.65,22.65,0,0,0,51,871.5c2,.25,38.27,4.52,94.12,4.52,21.33,0,32-.07,42-.47,0,0,14.15-.6,27.64-1.72,148.42-12.36,282.8-112,282.8-112A604,604,0,0,0,604,660.45a215.16,215.16,0,0,0,43,19.35c32,10.34,58.16,10.44,76.92,10.44a286.13,286.13,0,0,0,155.16-45.5l191.42,191.42a60.43,60.43,0,0,0,43.06,17.76h.31a61.54,61.54,0,0,0,61.29-61.29A60.51,60.51,0,0,0,1157.4,749.26ZM83.49,635c14.85-103.73,53.92-248.35,155.7-348.24,102.46-100.5,247.36-139,350.88-153.59,16.64-2.35,32.76-4.17,48.19-5.57-117,36.55-202.14,145.91-202.14,274.79a289.65,289.65,0,0,0,1.68,31.05L337.63,533.65V364.2a22.4,22.4,0,1,0-44.79,0V578c0,.13,0,.25,0,.38L172.41,698.87V619.52a22.4,22.4,0,1,0-44.79,0v117a22.29,22.29,0,0,0,.91,6.26l-55,55A1022.76,1022.76,0,0,1,83.49,635ZM104.32,830.3l100-100H361.15a22.4,22.4,0,0,0,0-44.79h-112L448.54,486.08a253.92,253.92,0,0,0,28.14,63.5c29.91,48.22,69.23,75.13,92.23,88.3-34.45,42.3-131.1,149-291.76,184.81A501,501,0,0,1,104.32,830.3ZM480.91,402.43c0-134,109-243,243-243s243,109,243,243-109,243-243,243S480.91,536.43,480.91,402.43ZM938.65,593.85l21.68,21.68-23.56,23.55-21.69-21.69A290.85,290.85,0,0,0,938.65,593.85Zm186.82,210.37a16.69,16.69,0,0,1-11.81,4.91h-.09a16,16,0,0,1-11.39-4.64L968.44,670.75,992,647.19l133.73,133.74a16,16,0,0,1,4.65,11.48A16.76,16.76,0,0,1,1125.47,804.22Z"/><path class="cls-6" d="M315.24,314.15a22.39,22.39,0,0,0,22.39-22.4v-.29a22.4,22.4,0,1,0-44.79,0v.29A22.41,22.41,0,0,0,315.24,314.15Z"/><path class="cls-6" d="M433.89,685.52h-.29a22.4,22.4,0,1,0,0,44.79h.29a22.4,22.4,0,1,0,0-44.79Z"/><circle class="cls-4" cx="724.66" cy="402.82" r="176.44"/><path class="cls-3" d="M725.32,137.41c-146.58,0-265.41,118.83-265.41,265.41S578.74,668.23,725.32,668.23,990.73,549.4,990.73,402.82,871.9,137.41,725.32,137.41Zm0,464.72C615.25,602.13,526,512.89,526,402.82s89.24-199.31,199.31-199.31,199.31,89.24,199.31,199.31S835.39,602.13,725.32,602.13Z"/><circle class="cls-4" cx="723.93" cy="402.43" r="265.4"/></svg>