<?xml version="1.0" encoding="UTF-8" standalone="no"?>
<!DOCTYPE svg PUBLIC "-//W3C//DTD SVG 1.1//EN" "http://www.w3.org/Graphics/SVG/1.1/DTD/svg11.dtd">
<svg version="1.1" xmlns="http://www.w3.org/2000/svg" xmlns:xlink="http://www.w3.org/1999/xlink" preserveAspectRatio="xMidYMid meet" viewBox="0 0 640 640" width="640" height="640"><defs><path d="M62.67 145.56C58.75 145.68 55.23 150.48 53.73 154.34C52.02 158.74 53.3 161.06 51.61 162.17C48.82 163.95 44.64 158.43 38.77 158.35C31.97 158.27 24.63 165.52 23.4 171.04C22.1 176.83 26.96 183.28 36.01 190.51C35.25 191.6 34.66 192.76 34.26 194C33.04 197.85 34.74 199.95 33.42 201.61C31.53 203.98 27.81 200.24 22.66 202.12C18.96 203.47 15.36 207.42 13.53 211.78C6.98 212.42 1.27 214.17 0.18 217.58C-1.49 222.75 9.07 227.32 8.38 236.83C7.94 242.76 3.6 243.6 3.98 248.67C4.52 255.9 13.75 260.86 18.64 263.03C17.91 265.24 17.85 267.62 18.46 269.87C16.85 275.06 18.04 280.72 21.65 284.88C21.74 284.98 21.84 285.08 21.94 285.19C20.89 286.3 20.05 287.62 19.52 289.05C17.61 294.2 19.68 301.33 24.09 305.07C25.09 305.91 29.54 309.45 40.43 307.57C52.78 305.44 59.9 298.68 75.6 283.88C80.75 282.71 85.82 281.22 90.78 279.4C117.12 269 141.47 268.24 157.86 268.51C158.16 268.59 160.55 269.13 160.85 269.21C155.67 280.31 153.17 282.11 152.73 289.71C152.49 293.85 152.27 309.74 165.16 320.51C174.71 328.36 187.72 330.96 199.68 327.41C211.08 323.79 209.03 317.06 223.11 310.71C235.33 305.19 249.04 304.72 255.52 304.51C266.96 304.14 273.41 305.69 274.18 303.56C275.18 300.79 264.49 297.13 253.04 284.59C248.54 279.9 244.78 274.56 241.9 268.76C236.46 257.51 239.47 253.87 235.47 244.95C231.35 235.75 222.04 225.95 208.99 222.61C207.06 222.11 190.07 218 178.37 227.36C171.05 233.21 172.98 238.64 165.56 258.01C155.1 248.52 143.58 238 131.16 226.51C92.89 191.09 90.76 187.95 88.83 182.41C83.74 167.94 79.36 161.62 69.43 149.86C67.92 148.08 65.61 145.46 62.67 145.56Z" id="dLVqFDeMt"></path><path d="M62.67 145.56C58.75 145.68 55.23 150.48 53.73 154.34C52.02 158.74 53.3 161.06 51.61 162.17C48.82 163.95 44.64 158.43 38.77 158.35C31.97 158.27 24.63 165.52 23.4 171.04C22.1 176.83 26.96 183.28 36.01 190.51C35.25 191.6 34.66 192.76 34.26 194C33.04 197.85 34.74 199.95 33.42 201.61C31.53 203.98 27.81 200.24 22.66 202.12C18.96 203.47 15.36 207.42 13.53 211.78C6.98 212.42 1.27 214.17 0.18 217.58C-1.49 222.75 9.07 227.32 8.38 236.83C7.94 242.76 3.6 243.6 3.98 248.67C4.52 255.9 13.75 260.86 18.64 263.03C17.91 265.24 17.85 267.62 18.46 269.87C16.85 275.06 18.04 280.72 21.65 284.88C21.74 284.98 21.84 285.08 21.94 285.19C20.89 286.3 20.05 287.62 19.52 289.05C17.61 294.2 19.68 301.33 24.09 305.07C25.09 305.91 29.54 309.45 40.43 307.57C52.78 305.44 59.9 298.68 75.6 283.88C80.75 282.71 85.82 281.22 90.78 279.4C117.12 269 141.47 268.24 157.86 268.51C158.16 268.59 160.55 269.13 160.85 269.21C155.67 280.31 153.17 282.11 152.73 289.71C152.49 293.85 152.27 309.74 165.16 320.51C174.71 328.36 187.72 330.96 199.68 327.41C211.08 323.79 209.03 317.06 223.11 310.71C235.33 305.19 249.04 304.72 255.52 304.51C266.96 304.14 273.41 305.69 274.18 303.56C275.18 300.79 264.49 297.13 253.04 284.59C248.54 279.9 244.78 274.56 241.9 268.76C236.46 257.51 239.47 253.87 235.47 244.95C231.35 235.75 222.04 225.95 208.99 222.61C207.06 222.11 190.07 218 178.37 227.36C171.05 233.21 172.98 238.64 165.56 258.01C155.1 248.52 143.58 238 131.16 226.51C92.89 191.09 90.76 187.95 88.83 182.41C83.74 167.94 79.36 161.62 69.43 149.86C67.92 148.08 65.61 145.46 62.67 145.56Z" id="cRz6rmSGB"></path><path d="M492.22 61.07C492.11 57.25 487.17 53.82 483.19 52.37C478.7 50.7 476.29 51.94 475.16 50.26C473.33 47.53 479.01 43.48 479.07 37.76C479.15 31.14 471.71 23.99 466.04 22.78C460.12 21.53 453.47 26.25 446.05 35.09C444.96 34.33 443.74 33.75 442.47 33.36C438.51 32.18 436.38 33.85 434.65 32.55C432.22 30.71 436.06 27.07 434.13 22.07C432.74 18.46 428.68 14.96 424.21 13.18C423.55 6.8 421.76 1.24 418.26 0.17C412.97 -1.45 408.25 8.84 398.5 8.14C392.4 7.73 391.54 3.51 386.33 3.88C378.91 4.4 373.83 13.39 371.59 18.15C369.32 17.44 366.87 17.38 364.58 17.98C359.23 16.41 353.42 17.59 349.17 21.08C349.13 21.12 348.87 21.35 348.85 21.39C347.69 20.34 346.34 19.53 344.89 19.01C339.58 17.15 332.27 19.16 328.42 23.46C327.56 24.41 323.92 28.75 325.85 39.39C328.04 51.4 334.98 58.34 350.18 73.62C351.37 78.64 352.91 83.58 354.78 88.41C365.46 114.06 366.23 137.77 365.96 153.74C365.88 154.03 365.32 156.35 365.26 156.64C353.84 151.61 352.01 149.17 344.19 148.74C339.95 148.51 323.62 148.31 312.56 160.83C304.5 170.15 301.84 182.82 305.48 194.46C309.22 205.56 316.1 203.57 322.63 217.29C328.32 229.16 328.77 242.51 328.99 248.85C329.39 259.99 327.8 266.28 329.97 267.02C332.81 268.01 336.59 257.58 349.44 246.44C354.28 242.05 359.75 238.38 365.7 235.58C377.26 230.31 381 233.19 390.11 229.32C399.56 225.31 409.62 216.24 413.05 203.55C413.54 201.65 417.76 185.1 408.17 173.71C402.14 166.56 396.59 168.46 376.68 161.24C386.43 151.04 397.25 139.83 409.03 127.74C445.45 90.48 448.68 88.43 454.37 86.55C469.23 81.61 475.71 77.32 487.79 67.66C489.62 66.18 492.3 63.94 492.22 61.07Z" id="ggAc6U8JZ"></path><path d="M492.22 61.07C492.11 57.25 487.17 53.82 483.19 52.37C478.7 50.7 476.29 51.94 475.16 50.26C473.33 47.53 479.01 43.48 479.07 37.76C479.15 31.14 471.71 23.99 466.04 22.78C460.12 21.53 453.47 26.25 446.05 35.09C444.96 34.33 443.74 33.75 442.47 33.36C438.51 32.18 436.38 33.85 434.65 32.55C432.22 30.71 436.06 27.07 434.13 22.07C432.74 18.46 428.68 14.96 424.21 13.18C423.55 6.8 421.76 1.24 418.26 0.17C412.97 -1.45 408.25 8.84 398.5 8.14C392.4 7.73 391.54 3.51 386.33 3.88C378.91 4.4 373.83 13.39 371.59 18.15C369.32 17.44 366.87 17.38 364.58 17.98C359.23 16.41 353.42 17.59 349.17 21.08C349.13 21.12 348.87 21.35 348.85 21.39C347.69 20.34 346.34 19.53 344.89 19.01C339.58 17.15 332.27 19.16 328.42 23.46C327.56 24.41 323.92 28.75 325.85 39.39C328.04 51.4 334.98 58.34 350.18 73.62C351.37 78.64 352.91 83.58 354.78 88.41C365.46 114.06 366.23 137.77 365.96 153.74C365.88 154.03 365.32 156.35 365.26 156.64C353.84 151.61 352.01 149.17 344.19 148.74C339.95 148.51 323.62 148.31 312.56 160.83C304.5 170.15 301.84 182.82 305.48 194.46C309.22 205.56 316.1 203.57 322.63 217.29C328.32 229.16 328.77 242.51 328.99 248.85C329.39 259.99 327.8 266.28 329.97 267.02C332.81 268.01 336.59 257.58 349.44 246.44C354.28 242.05 359.75 238.38 365.7 235.58C377.26 230.31 381 233.19 390.11 229.32C399.56 225.31 409.62 216.24 413.05 203.55C413.54 201.65 417.76 185.1 408.17 173.71C402.14 166.56 396.59 168.46 376.68 161.24C386.43 151.04 397.25 139.83 409.03 127.74C445.45 90.48 448.68 88.43 454.37 86.55C469.23 81.61 475.71 77.32 487.79 67.66C489.62 66.18 492.3 63.94 492.22 61.07Z" id="kLKcO8dP"></path><path d="M577.33 505.89C581.25 505.77 584.75 500.97 586.27 497.11C587.96 492.71 586.7 490.39 588.39 489.29C591.18 487.5 595.36 493.02 601.23 493.1C608.03 493.18 615.35 485.93 616.6 480.41C617.9 474.62 613.04 468.15 603.97 460.94C604.73 459.86 605.32 458.67 605.74 457.43C606.96 453.6 605.24 451.5 606.58 449.84C608.47 447.47 612.19 451.21 617.34 449.33C621.04 447.98 624.64 444.01 626.47 439.67C633.02 439.03 638.73 437.28 639.82 433.87C641.49 428.7 630.93 424.11 631.62 414.62C632.06 408.69 636.4 407.83 636.02 402.78C635.48 395.55 626.25 390.59 621.34 388.42C622.09 386.21 622.15 383.83 621.54 381.58C623.13 376.37 621.94 370.73 618.33 366.59C618.31 366.55 618.08 366.3 618.04 366.28C619.09 365.15 619.93 363.85 620.46 362.44C622.37 357.29 620.3 350.16 615.89 346.42C614.91 345.56 610.46 342.04 599.55 343.92C587.2 346.05 580.08 352.81 564.38 367.59C559.23 368.78 554.16 370.27 549.2 372.07C522.86 382.47 498.51 383.25 482.12 382.98C481.82 382.9 479.43 382.36 479.13 382.28C484.31 371.16 486.81 369.38 487.25 361.78C487.49 357.65 487.71 341.75 474.84 330.98C465.27 323.13 452.28 320.53 440.32 324.08C428.92 327.72 430.95 334.4 416.87 340.76C404.67 346.3 390.94 346.77 384.46 346.96C373.04 347.35 366.57 345.8 365.8 347.91C364.8 350.7 375.49 354.36 386.94 366.9C391.44 371.58 395.2 376.93 398.09 382.73C403.52 393.98 400.53 397.62 404.51 406.48C408.65 415.7 417.94 425.48 430.99 428.82C432.92 429.32 449.91 433.43 461.61 424.07C468.95 418.22 467 412.79 474.42 393.42C484.88 402.91 496.4 413.43 508.82 424.92C547.11 460.36 549.22 463.5 551.17 469.04C556.24 483.49 560.64 489.83 570.57 501.59C572.06 503.35 574.39 505.99 577.33 505.89Z" id="aSt7C8Q6I"></path><path d="M577.33 505.89C581.25 505.77 584.75 500.97 586.27 497.11C587.96 492.71 586.7 490.39 588.39 489.29C591.18 487.5 595.36 493.02 601.23 493.1C608.03 493.18 615.35 485.93 616.6 480.41C617.9 474.62 613.04 468.15 603.97 460.94C604.73 459.86 605.32 458.67 605.74 457.43C606.96 453.6 605.24 451.5 606.58 449.84C608.47 447.47 612.19 451.21 617.34 449.33C621.04 447.98 624.64 444.01 626.47 439.67C633.02 439.03 638.73 437.28 639.82 433.87C641.49 428.7 630.93 424.11 631.62 414.62C632.06 408.69 636.4 407.83 636.02 402.78C635.48 395.55 626.25 390.59 621.34 388.42C622.09 386.21 622.15 383.83 621.54 381.58C623.13 376.37 621.94 370.73 618.33 366.59C618.31 366.55 618.08 366.3 618.04 366.28C619.09 365.15 619.93 363.85 620.46 362.44C622.37 357.29 620.3 350.16 615.89 346.42C614.91 345.56 610.46 342.04 599.55 343.92C587.2 346.05 580.08 352.81 564.38 367.59C559.23 368.78 554.16 370.27 549.2 372.07C522.86 382.47 498.51 383.25 482.12 382.98C481.82 382.9 479.43 382.36 479.13 382.28C484.31 371.16 486.81 369.38 487.25 361.78C487.49 357.65 487.71 341.75 474.84 330.98C465.27 323.13 452.28 320.53 440.32 324.08C428.92 327.72 430.95 334.4 416.87 340.76C404.67 346.3 390.94 346.77 384.46 346.96C373.04 347.35 366.57 345.8 365.8 347.91C364.8 350.7 375.49 354.36 386.94 366.9C391.44 371.58 395.2 376.93 398.09 382.73C403.52 393.98 400.53 397.62 404.51 406.48C408.65 415.7 417.94 425.48 430.99 428.82C432.92 429.32 449.91 433.43 461.61 424.07C468.95 418.22 467 412.79 474.42 393.42C484.88 402.91 496.4 413.43 508.82 424.92C547.11 460.36 549.22 463.5 551.17 469.04C556.24 483.49 560.64 489.83 570.57 501.59C572.06 503.35 574.39 505.99 577.33 505.89Z" id="a9dzNdOmy"></path><path d="M145.37 578.99C145.51 582.79 150.44 586.22 154.4 587.67C158.92 589.34 161.3 588.1 162.44 589.74C164.27 592.45 158.6 596.52 158.52 602.24C158.44 608.86 165.88 616.01 171.55 617.22C177.5 618.47 184.12 613.75 191.54 604.93C192.64 605.67 193.85 606.25 195.12 606.64C199.08 607.82 201.23 606.17 202.94 607.45C205.37 609.29 201.53 612.93 203.46 617.95C204.85 621.54 208.91 625.04 213.39 626.82C214.04 633.2 215.83 638.76 219.33 639.83C224.63 641.45 229.36 631.16 239.09 631.84C245.2 632.29 246.05 636.49 251.27 636.12C258.69 635.62 263.76 626.61 266.01 621.85C268.27 622.58 270.72 622.64 273.01 622.02C278.36 623.59 284.17 622.43 288.45 618.92C288.47 618.9 288.73 618.67 288.75 618.63C289.9 619.68 291.25 620.47 292.72 620.99C298.04 622.85 305.32 620.84 309.2 616.56C310.05 615.59 313.67 611.25 311.74 600.63C309.56 588.6 302.61 581.68 287.41 566.4C286.22 561.38 284.69 556.44 282.82 551.61C272.13 525.96 271.36 502.25 271.64 486.28C272 484.83 272.27 483.65 272.33 483.36C283.75 488.39 285.58 490.85 293.4 491.26C297.64 491.51 313.97 491.71 325.03 479.17C333.09 469.87 335.76 457.2 332.12 445.56C328.38 434.46 321.49 436.43 314.97 422.73C309.3 410.84 308.82 397.49 308.6 391.15C308.2 380.03 309.81 373.74 307.63 372.98C304.78 372.01 301 382.43 288.15 393.57C283.31 397.97 277.84 401.63 271.88 404.42C260.34 409.71 256.58 406.81 247.49 410.68C238.04 414.71 227.97 423.76 224.55 436.53C224.03 438.41 219.81 454.95 229.42 466.35C235.45 473.49 241 471.6 260.89 478.82C251.17 489.01 240.34 500.23 228.55 512.32C192.14 549.54 188.92 551.61 183.23 553.49C168.39 558.45 161.88 562.71 149.8 572.38C147.97 573.85 145.29 576.1 145.37 578.99Z" id="b2b9WPWvhy"></path><path d="M145.37 578.99C145.51 582.79 150.44 586.22 154.4 587.67C158.92 589.34 161.3 588.1 162.44 589.74C164.27 592.45 158.6 596.52 158.52 602.24C158.44 608.86 165.88 616.01 171.55 617.22C177.5 618.47 184.12 613.75 191.54 604.93C192.64 605.67 193.85 606.25 195.12 606.64C199.08 607.82 201.23 606.17 202.94 607.45C205.37 609.29 201.53 612.93 203.46 617.95C204.85 621.54 208.91 625.04 213.39 626.82C214.04 633.2 215.83 638.76 219.33 639.83C224.63 641.45 229.36 631.16 239.09 631.84C245.2 632.29 246.05 636.49 251.27 636.12C258.69 635.62 263.76 626.61 266.01 621.85C268.27 622.58 270.72 622.64 273.01 622.02C278.36 623.59 284.17 622.43 288.45 618.92C288.47 618.9 288.73 618.67 288.75 618.63C289.9 619.68 291.25 620.47 292.72 620.99C298.04 622.85 305.32 620.84 309.2 616.56C310.05 615.59 313.67 611.25 311.74 600.63C309.56 588.6 302.61 581.68 287.41 566.4C286.22 561.38 284.69 556.44 282.82 551.61C272.13 525.96 271.36 502.25 271.64 486.28C272 484.83 272.27 483.65 272.33 483.36C283.75 488.39 285.58 490.85 293.4 491.26C297.64 491.51 313.97 491.71 325.03 479.17C333.09 469.87 335.76 457.2 332.12 445.56C328.38 434.46 321.49 436.43 314.97 422.73C309.3 410.84 308.82 397.49 308.6 391.15C308.2 380.03 309.81 373.74 307.63 372.98C304.78 372.01 301 382.43 288.15 393.57C283.31 397.97 277.84 401.63 271.88 404.42C260.34 409.71 256.58 406.81 247.49 410.68C238.04 414.71 227.97 423.76 224.55 436.53C224.03 438.41 219.81 454.95 229.42 466.35C235.45 473.49 241 471.6 260.89 478.82C251.17 489.01 240.34 500.23 228.55 512.32C192.14 549.54 188.92 551.61 183.23 553.49C168.39 558.45 161.88 562.71 149.8 572.38C147.97 573.85 145.29 576.1 145.37 578.99Z" id="a6pcbo0eV"></path><path d="M249.18 29.91C245.42 29.47 245.93 21.7 240.9 17.46C235.37 12.81 224.55 13.54 217.98 17.52C216.03 18.72 214.32 20.25 212.95 22.07C212.85 20.23 212.39 18.45 211.62 16.78C209.09 11.61 202.64 7.36 197.17 8.31C193.21 9.01 190.55 12.28 188.88 15.05C188.14 16.18 187.48 17.34 186.91 18.54C186.07 20.19 185.47 21.93 185.14 23.71C184.54 23.37 183.88 23.08 183.23 22.84C177.92 21 169.62 22.84 164.57 26.97C163.27 28.05 162.2 29.33 161.38 30.77C159.21 34.2 158.06 38.13 158.04 42.14C151.89 40.82 143.54 41.85 140.16 46.54C139.98 46.77 139.82 47.02 139.68 47.29C139.68 47.29 139.68 47.29 139.68 47.29C135.44 53.13 142.28 60.04 137.55 68.14C137.55 68.16 137.55 68.2 137.55 68.2C134.92 72.05 131.88 71.51 127.42 77.69C126.75 78.62 125.91 79.75 125.1 81.1C123.25 83.95 121.4 87.65 122.05 91.45C122.27 92.77 122.77 94.03 123.48 95.17C121.55 95.15 119.62 95.36 117.75 95.83C116.7 96.1 115.69 96.52 114.73 97.05C109.2 100.15 105.64 107.84 106.65 114.25C106.89 115.69 108.09 121.92 118.99 128.07C132.52 135.68 144.73 133.99 174.83 132.06C175.85 131.98 184 131.48 185.02 131.42C184.94 131.98 184.86 132.52 184.78 133.01C183.72 140.04 183.25 143.57 184.24 147.56C186.03 154.78 189.43 153.49 195.5 165.48C195.5 165.48 201.67 177.65 205.81 182.66C206.88 183.96 206.32 183.19 213.61 191.27C219.12 197.39 219.85 198.32 220.51 199.15C224.03 203.7 224.53 205.51 227.75 210.31C230.4 214.19 233.32 217.87 236.5 221.34C243.43 229.24 245 229.34 252.42 237.2C259.28 244.45 257.73 244.1 267.28 254.5C275.3 263.28 276.13 263.26 279.36 267.93C283.45 273.86 283.75 276.34 287.85 279.89C291.47 282.98 293.2 282.79 296.9 286.47C299.53 289.13 299.91 290.5 303.07 295C306.51 299.92 311.84 307.53 313.79 306.8C316.52 305.75 311.82 288.93 311.35 287.21C309.65 281.49 307.63 275.87 305.28 270.37C299.97 257.33 299.11 257.43 298.2 252.8C296.47 244.27 299.35 243.07 298.75 232.69C298.59 229.94 298.36 229.26 293.16 209.79C288.51 192.23 287.87 189.79 287.11 186.03C285.28 177.14 285.8 177.12 284.23 171.04C281.98 162.36 280.49 160.77 278.02 151.61C275.56 142.42 276.75 143.08 274.7 136.24C272.49 129.05 269.33 122.16 265.33 115.76C260.95 108.44 258.75 104.8 254.29 101.29C251.27 98.91 247.82 97.09 244.12 95.94C245.18 95.46 246.23 94.92 247.31 94.3C254.37 90.21 260.22 84.42 264.28 77.46C265.01 76.3 265.67 75.23 266.25 74.26C273.47 62.19 273.61 52.16 273.87 32.12C273.98 29.35 273.94 25.42 271.3 23.4C267.82 20.71 261.15 22.36 256.94 24.66C252.16 27.28 251.5 30.21 249.18 29.91Z" id="a31DEq9Ho4"></path><path d="M249.18 29.91C245.42 29.47 245.93 21.7 240.9 17.46C235.37 12.81 224.55 13.54 217.98 17.52C216.03 18.72 214.32 20.25 212.95 22.07C212.85 20.23 212.39 18.45 211.62 16.78C209.09 11.61 202.64 7.36 197.17 8.31C193.21 9.01 190.55 12.28 188.88 15.05C188.14 16.18 187.48 17.34 186.91 18.54C186.07 20.19 185.47 21.93 185.14 23.71C184.54 23.37 183.88 23.08 183.23 22.84C177.92 21 169.62 22.84 164.57 26.97C163.27 28.05 162.2 29.33 161.38 30.77C159.21 34.2 158.06 38.13 158.04 42.14C151.89 40.82 143.54 41.85 140.16 46.54C139.98 46.77 139.82 47.02 139.68 47.29C139.68 47.29 139.68 47.29 139.68 47.29C135.44 53.13 142.28 60.04 137.55 68.14C137.55 68.16 137.55 68.2 137.55 68.2C134.92 72.05 131.88 71.51 127.42 77.69C126.75 78.62 125.91 79.75 125.1 81.1C123.25 83.95 121.4 87.65 122.05 91.45C122.27 92.77 122.77 94.03 123.48 95.17C121.55 95.15 119.62 95.36 117.75 95.83C116.7 96.1 115.69 96.52 114.73 97.05C109.2 100.15 105.64 107.84 106.65 114.25C106.89 115.69 108.09 121.92 118.99 128.07C132.52 135.68 144.73 133.99 174.83 132.06C175.85 131.98 184 131.48 185.02 131.42C184.94 131.98 184.86 132.52 184.78 133.01C183.72 140.04 183.25 143.57 184.24 147.56C186.03 154.78 189.43 153.49 195.5 165.48C195.5 165.48 201.67 177.65 205.81 182.66C206.88 183.96 206.32 183.19 213.61 191.27C219.12 197.39 219.85 198.32 220.51 199.15C224.03 203.7 224.53 205.51 227.75 210.31C230.4 214.19 233.32 217.87 236.5 221.34C243.43 229.24 245 229.34 252.42 237.2C259.28 244.45 257.73 244.1 267.28 254.5C275.3 263.28 276.13 263.26 279.36 267.93C283.45 273.86 283.75 276.34 287.85 279.89C291.47 282.98 293.2 282.79 296.9 286.47C299.53 289.13 299.91 290.5 303.07 295C306.51 299.92 311.84 307.53 313.79 306.8C316.52 305.75 311.82 288.93 311.35 287.21C309.65 281.49 307.63 275.87 305.28 270.37C299.97 257.33 299.11 257.43 298.2 252.8C296.47 244.27 299.35 243.07 298.75 232.69C298.59 229.94 298.36 229.26 293.16 209.79C288.51 192.23 287.87 189.79 287.11 186.03C285.28 177.14 285.8 177.12 284.23 171.04C281.98 162.36 280.49 160.77 278.02 151.61C275.56 142.42 276.75 143.08 274.7 136.24C272.49 129.05 269.33 122.16 265.33 115.76C260.95 108.44 258.75 104.8 254.29 101.29C251.27 98.91 247.82 97.09 244.12 95.94C245.18 95.46 246.23 94.92 247.31 94.3C254.37 90.21 260.22 84.42 264.28 77.46C265.01 76.3 265.67 75.23 266.25 74.26C273.47 62.19 273.61 52.16 273.87 32.12C273.98 29.35 273.94 25.42 271.3 23.4C267.82 20.71 261.15 22.36 256.94 24.66C252.16 27.28 251.5 30.21 249.18 29.91Z" id="dbhmQLpL0"></path><path d="M605.26 253.05C605.72 249.39 613.7 249.91 618.06 244.99C622.83 239.62 622.09 229.08 618 222.69C616.78 220.79 615.19 219.13 613.34 217.79C615.23 217.69 617.06 217.25 618.77 216.47C624.08 214.03 628.42 207.75 627.45 202.43C626.73 198.57 623.39 195.97 620.54 194.35C619.39 193.63 618.2 192.99 616.94 192.43C615.27 191.61 613.48 191.03 611.65 190.7C612.01 190.1 612.33 189.48 612.57 188.84C614.46 183.67 612.57 175.59 608.31 170.67C607.21 169.41 605.9 168.37 604.43 167.57C600.91 165.48 596.87 164.35 592.75 164.34C594.08 158.33 593.05 150.19 588.23 146.9C587.98 146.72 587.72 146.57 587.46 146.43C587.46 146.43 587.46 146.43 587.46 146.43C581.47 142.31 574.35 148.97 566.05 144.36C566.03 144.36 565.99 144.36 565.97 144.36C562.03 141.8 562.57 138.84 556.24 134.5C555.29 133.84 554.12 133.03 552.74 132.23C549.82 130.43 546 128.63 542.12 129.27C540.77 129.48 539.47 129.96 538.28 130.66C538.32 128.78 538.1 126.9 537.62 125.08C537.33 124.06 536.91 123.07 536.37 122.14C533.19 116.75 525.29 113.28 518.7 114.27C517.23 114.48 510.83 115.67 504.52 126.28C496.68 139.44 498.41 151.35 500.42 180.67C500.68 184.27 500.88 187.57 501.06 190.59C500.9 190.57 499.61 190.37 499.45 190.36C492.22 189.33 488.6 188.86 484.51 189.81C477.09 191.58 478.42 194.89 466.08 200.8C466.08 200.8 453.61 206.8 448.46 210.83C447.1 211.88 447.92 211.34 439.62 218.43C433.32 223.8 432.38 224.51 431.53 225.15C426.85 228.56 424.98 229.07 420.05 232.2C416.09 234.78 412.31 237.63 408.75 240.73C400.63 247.47 400.51 249 392.44 256.23C385.01 262.93 385.37 261.46 374.69 270.7C365.66 278.51 365.7 279.34 360.9 282.48C354.81 286.45 352.29 286.76 348.65 290.75C345.46 294.28 345.66 295.97 341.86 299.55C339.16 302.13 337.75 302.5 333.11 305.56C328.06 308.91 320.24 314.1 320.99 316.02C322.07 318.67 339.34 314.1 341.17 313.62C347.04 311.97 352.81 309.99 358.46 307.71C371.84 302.55 371.73 301.72 376.5 300.81C385.25 299.14 386.47 301.95 397.13 301.35C399.96 301.2 400.65 300.96 420.65 295.93C438.67 291.37 441.2 290.75 445.04 290.02C454.17 288.24 454.21 288.74 460.43 287.21C469.35 285.02 470.98 283.59 480.39 281.18C489.82 278.76 489.14 279.94 496.16 277.93C503.54 275.78 510.63 272.72 517.21 268.8C524.71 264.54 528.45 262.41 532.07 258.05C534.52 255.1 536.39 251.75 537.56 248.15C538.06 249.18 538.62 250.2 539.23 251.25C543.43 258.13 549.4 263.82 556.54 267.78C557.72 268.49 558.83 269.13 559.83 269.69C572.2 276.73 582.51 276.86 603.08 277.1C605.9 277.27 609.92 277.23 611.97 274.62C614.71 271.22 613.04 264.73 610.68 260.63C607.99 255.98 604.99 255.34 605.26 253.05Z" id="adFjAl90"></path><path d="M605.26 253.05C605.72 249.39 613.7 249.91 618.06 244.99C622.83 239.62 622.09 229.08 618 222.69C616.78 220.79 615.19 219.13 613.34 217.79C615.23 217.69 617.06 217.25 618.77 216.47C624.08 214.03 628.42 207.75 627.45 202.43C626.73 198.57 623.39 195.97 620.54 194.35C619.39 193.63 618.2 192.99 616.94 192.43C615.27 191.61 613.48 191.03 611.65 190.7C612.01 190.1 612.33 189.48 612.57 188.84C614.46 183.67 612.57 175.59 608.31 170.67C607.21 169.41 605.9 168.37 604.43 167.57C600.91 165.48 596.87 164.35 592.75 164.34C594.08 158.33 593.05 150.19 588.23 146.9C587.98 146.72 587.72 146.57 587.46 146.43C587.46 146.43 587.46 146.43 587.46 146.43C581.47 142.31 574.35 148.97 566.05 144.36C566.03 144.36 565.99 144.36 565.97 144.36C562.03 141.8 562.57 138.84 556.24 134.5C555.29 133.84 554.12 133.03 552.74 132.23C549.82 130.43 546 128.63 542.12 129.27C540.77 129.48 539.47 129.96 538.28 130.66C538.32 128.78 538.1 126.9 537.62 125.08C537.33 124.06 536.91 123.07 536.37 122.14C533.19 116.75 525.29 113.28 518.7 114.27C517.23 114.48 510.83 115.67 504.52 126.28C496.68 139.44 498.41 151.35 500.42 180.67C500.68 184.27 500.88 187.57 501.06 190.59C500.9 190.57 499.61 190.37 499.45 190.36C492.22 189.33 488.6 188.86 484.51 189.81C477.09 191.58 478.42 194.89 466.08 200.8C466.08 200.8 453.61 206.8 448.46 210.83C447.1 211.88 447.92 211.34 439.62 218.43C433.32 223.8 432.38 224.51 431.53 225.15C426.85 228.56 424.98 229.07 420.05 232.2C416.09 234.78 412.31 237.63 408.75 240.73C400.63 247.47 400.51 249 392.44 256.23C385.01 262.93 385.37 261.46 374.69 270.7C365.66 278.51 365.7 279.34 360.9 282.48C354.81 286.45 352.29 286.76 348.65 290.75C345.46 294.28 345.66 295.97 341.86 299.55C339.16 302.13 337.75 302.5 333.11 305.56C328.06 308.91 320.24 314.1 320.99 316.02C322.07 318.67 339.34 314.1 341.17 313.62C347.04 311.97 352.81 309.99 358.46 307.71C371.84 302.55 371.73 301.72 376.5 300.81C385.25 299.14 386.47 301.95 397.13 301.35C399.96 301.2 400.65 300.96 420.65 295.93C438.67 291.37 441.2 290.75 445.04 290.02C454.17 288.24 454.21 288.74 460.43 287.21C469.35 285.02 470.98 283.59 480.39 281.18C489.82 278.76 489.14 279.94 496.16 277.93C503.54 275.78 510.63 272.72 517.21 268.8C524.71 264.54 528.45 262.41 532.07 258.05C534.52 255.1 536.39 251.75 537.56 248.15C538.06 249.18 538.62 250.2 539.23 251.25C543.43 258.13 549.4 263.82 556.54 267.78C557.72 268.49 558.83 269.13 559.83 269.69C572.2 276.73 582.51 276.86 603.08 277.1C605.9 277.27 609.92 277.23 611.97 274.62C614.71 271.22 613.04 264.73 610.68 260.63C607.99 255.98 604.99 255.34 605.26 253.05Z" id="b4zc9MsxjE"></path><path d="M391.22 603.42C394.98 603.87 394.44 611.69 399.5 615.9C405.03 620.53 415.83 619.81 422.4 615.9C424.37 614.7 426.06 613.15 427.45 611.34C427.53 613.17 427.99 614.97 428.78 616.63C431.31 621.81 437.75 626.03 443.21 625.08C447.16 624.4 449.83 621.11 451.52 618.36C452.24 617.23 452.89 616.07 453.47 614.85C454.33 613.22 454.92 611.48 455.26 609.7C455.86 610.05 456.49 610.36 457.15 610.57C462.46 612.41 470.78 610.57 475.83 606.44C477.11 605.38 478.18 604.08 479.01 602.65C481.16 599.22 482.3 595.28 482.34 591.27C488.48 592.59 496.84 591.56 500.22 586.89C500.4 586.64 500.56 586.39 500.7 586.14C500.7 586.14 500.7 586.14 500.7 586.14C504.96 580.29 498.11 573.37 502.83 565.27C502.83 565.27 502.83 565.21 502.83 565.21C505.45 561.38 508.5 561.9 512.95 555.72C513.63 554.79 514.49 553.65 515.3 552.31C517.13 549.46 519 545.76 518.35 541.98C518.11 540.67 517.63 539.41 516.93 538.26C518.86 538.3 520.79 538.07 522.68 537.61C523.74 537.33 524.73 536.93 525.69 536.38C531.24 533.28 534.78 525.59 533.76 519.18C533.55 517.77 532.33 511.51 521.43 505.37C507.9 497.75 495.69 499.44 465.59 501.39C464.57 501.45 456.42 501.96 455.4 502.01C455.5 501.45 455.56 500.91 455.64 500.44C456.69 493.39 457.17 489.89 456.18 485.88C454.39 478.65 450.98 479.95 444.92 467.95C444.92 467.95 438.75 455.81 434.61 450.77C433.54 449.47 434.07 450.26 426.81 442.17C421.3 436.04 420.55 435.11 419.91 434.28C416.39 429.75 415.89 427.93 412.67 423.12C410.02 419.27 407.08 415.58 403.91 412.12C396.99 404.21 395.42 404.08 388 396.23C381.14 389 382.69 389.35 373.14 378.95C365.12 370.15 364.26 370.17 361.06 365.5C356.96 359.57 356.67 357.11 352.57 353.55C348.93 350.45 347.26 350.64 343.52 346.96C340.87 344.32 340.49 342.95 337.35 338.43C333.91 333.53 328.57 325.92 326.6 326.66C323.9 327.68 328.57 344.5 329.07 346.22C330.76 351.94 332.77 357.58 335.14 363.08C340.39 376.12 341.29 376 342.22 380.63C343.95 389.18 341.07 390.36 341.66 400.74C341.82 403.49 342.06 404.17 347.26 423.64C351.91 441.22 352.55 443.64 353.3 447.42C355.13 456.31 354.62 456.33 356.19 462.41C358.44 471.07 359.91 472.68 362.37 481.85C364.84 491.03 363.67 490.37 365.72 497.21C367.93 504.4 371.07 511.28 375.09 517.69C379.46 524.99 381.65 528.65 386.13 532.16C389.15 534.54 392.59 536.37 396.29 537.51C395.24 537.99 394.19 538.54 393.11 539.16C386.05 543.24 380.2 549.04 376.14 555.99C375.41 557.15 374.77 558.22 374.17 559.19C366.95 571.26 366.81 581.28 366.57 601.33C366.41 604 366.45 607.93 369.08 609.95C372.56 612.64 379.25 611 383.44 608.69C388.24 606.07 388.87 603.17 391.22 603.42Z" id="ai8ZPcWJr"></path><path d="M391.22 603.42C394.98 603.87 394.44 611.69 399.5 615.9C405.03 620.53 415.83 619.81 422.4 615.9C424.37 614.7 426.06 613.15 427.45 611.34C427.53 613.17 427.99 614.97 428.78 616.63C431.31 621.81 437.75 626.03 443.21 625.08C447.16 624.4 449.83 621.11 451.52 618.36C452.24 617.23 452.89 616.07 453.47 614.85C454.33 613.22 454.92 611.48 455.26 609.7C455.86 610.05 456.49 610.36 457.15 610.57C462.46 612.41 470.78 610.57 475.83 606.44C477.11 605.38 478.18 604.08 479.01 602.65C481.16 599.22 482.3 595.28 482.34 591.27C488.48 592.59 496.84 591.56 500.22 586.89C500.4 586.64 500.56 586.39 500.7 586.14C500.7 586.14 500.7 586.14 500.7 586.14C504.96 580.29 498.11 573.37 502.83 565.27C502.83 565.27 502.83 565.21 502.83 565.21C505.45 561.38 508.5 561.9 512.95 555.72C513.63 554.79 514.49 553.65 515.3 552.31C517.13 549.46 519 545.76 518.35 541.98C518.11 540.67 517.63 539.41 516.93 538.26C518.86 538.3 520.79 538.07 522.68 537.61C523.74 537.33 524.73 536.93 525.69 536.38C531.24 533.28 534.78 525.59 533.76 519.18C533.55 517.77 532.33 511.51 521.43 505.37C507.9 497.75 495.69 499.44 465.59 501.39C464.57 501.45 456.42 501.96 455.4 502.01C455.5 501.45 455.56 500.91 455.64 500.44C456.69 493.39 457.17 489.89 456.18 485.88C454.39 478.65 450.98 479.95 444.92 467.95C444.92 467.95 438.75 455.81 434.61 450.77C433.54 449.47 434.07 450.26 426.81 442.17C421.3 436.04 420.55 435.11 419.91 434.28C416.39 429.75 415.89 427.93 412.67 423.12C410.02 419.27 407.08 415.58 403.91 412.12C396.99 404.21 395.42 404.08 388 396.23C381.14 389 382.69 389.35 373.14 378.95C365.12 370.15 364.26 370.17 361.06 365.5C356.96 359.57 356.67 357.11 352.57 353.55C348.93 350.45 347.26 350.64 343.52 346.96C340.87 344.32 340.49 342.95 337.35 338.43C333.91 333.53 328.57 325.92 326.6 326.66C323.9 327.68 328.57 344.5 329.07 346.22C330.76 351.94 332.77 357.58 335.14 363.08C340.39 376.12 341.29 376 342.22 380.63C343.95 389.18 341.07 390.36 341.66 400.74C341.82 403.49 342.06 404.17 347.26 423.64C351.91 441.22 352.55 443.64 353.3 447.42C355.13 456.31 354.62 456.33 356.19 462.41C358.44 471.07 359.91 472.68 362.37 481.85C364.84 491.03 363.67 490.37 365.72 497.21C367.93 504.4 371.07 511.28 375.09 517.69C379.46 524.99 381.65 528.65 386.13 532.16C389.15 534.54 392.59 536.37 396.29 537.51C395.24 537.99 394.19 538.54 393.11 539.16C386.05 543.24 380.2 549.04 376.14 555.99C375.41 557.15 374.77 558.22 374.17 559.19C366.95 571.26 366.81 581.28 366.57 601.33C366.41 604 366.45 607.93 369.08 609.95C372.56 612.64 379.25 611 383.44 608.69C388.24 606.07 388.87 603.17 391.22 603.42Z" id="e11J31xwbm"></path><path d="M30.3 386.29C29.84 389.95 21.8 389.43 17.51 394.35C12.73 399.74 13.49 410.26 17.57 416.65C18.8 418.57 20.37 420.23 22.24 421.57C20.35 421.65 18.5 422.09 16.81 422.87C11.5 425.33 7.14 431.59 8.12 436.92C8.83 440.77 12.2 443.37 15.02 445.01C16.19 445.71 17.39 446.35 18.62 446.91C20.29 447.75 22.08 448.33 23.91 448.66C23.56 449.24 23.24 449.86 23.02 450.5C21.13 455.67 23.02 463.77 27.26 468.69C28.35 469.93 29.68 470.98 31.15 471.79C34.68 473.88 38.71 475.01 42.83 475.03C41.48 481.01 42.53 489.15 47.33 492.44C47.59 492.62 47.85 492.77 48.1 492.91C48.1 492.91 48.1 492.91 48.1 492.91C54.09 497.05 61.22 490.39 69.53 494.98C69.53 494.98 69.59 494.98 69.59 494.98C73.53 497.54 72.99 500.5 79.32 504.84C80.29 505.5 81.45 506.33 82.84 507.13C85.76 508.91 89.56 510.73 93.44 510.09C94.82 509.86 96.11 509.38 97.28 508.68C97.26 510.58 97.48 512.46 97.98 514.28C98.26 515.31 98.68 516.29 99.21 517.2C102.4 522.61 110.29 526.06 116.88 525.09C118.35 524.86 124.78 523.67 131.08 513.06C138.9 499.9 137.17 487.99 135.16 458.67C134.92 455.07 134.7 451.78 134.51 448.75C134.68 448.77 135.98 448.97 136.14 448.99C143.36 450.01 146.98 450.48 151.08 449.53C158.52 447.78 157.19 444.45 169.5 438.54C169.5 438.54 181.97 432.56 187.13 428.51C188.46 427.48 187.66 428 195.96 420.93C202.27 415.55 203.2 414.83 204.06 414.21C208.73 410.78 210.58 410.28 215.52 407.14C219.49 404.56 223.27 401.71 226.84 398.61C234.95 391.89 235.07 390.34 243.15 383.11C250.57 376.43 250.21 377.94 260.89 368.64C269.93 360.83 269.91 360.02 274.68 356.88C280.77 352.89 283.3 352.6 286.96 348.61C290.14 345.06 289.94 343.39 293.74 339.79C296.45 337.23 297.86 336.85 302.49 333.78C307.53 330.43 315.34 325.24 314.59 323.34C313.53 320.69 296.25 325.24 294.44 325.73C288.57 327.37 282.8 329.35 277.15 331.63C263.74 336.75 263.86 337.62 259.1 338.53C250.35 340.22 249.14 337.41 238.47 337.99C235.65 338.14 234.95 338.38 214.96 343.43C196.91 347.97 194.43 348.61 190.51 349.32C181.38 351.11 181.36 350.6 175.11 352.13C166.2 354.32 164.57 355.78 155.16 358.18C145.75 360.56 146.4 359.42 139.38 361.41C132 363.56 124.94 366.64 118.35 370.54C110.83 374.8 107.09 376.95 103.49 381.31C101.04 384.24 99.17 387.59 98 391.21C97.5 390.16 96.95 389.14 96.31 388.11C92.11 381.23 86.16 375.54 79.02 371.57C77.83 370.87 76.73 370.23 75.72 369.67C63.34 362.61 53.04 362.5 32.47 362.25C29.72 362.13 25.68 362.17 23.6 364.73C20.85 368.12 22.54 374.63 24.89 378.71C27.57 383.38 30.58 384 30.3 386.29Z" id="c22NgcnXJj"></path><path d="M30.3 386.29C29.84 389.95 21.8 389.43 17.51 394.35C12.73 399.74 13.49 410.26 17.57 416.65C18.8 418.57 20.37 420.23 22.24 421.57C20.35 421.65 18.5 422.09 16.81 422.87C11.5 425.33 7.14 431.59 8.12 436.92C8.83 440.77 12.2 443.37 15.02 445.01C16.19 445.71 17.39 446.35 18.62 446.91C20.29 447.75 22.08 448.33 23.91 448.66C23.56 449.24 23.24 449.86 23.02 450.5C21.13 455.67 23.02 463.77 27.26 468.69C28.35 469.93 29.68 470.98 31.15 471.79C34.68 473.88 38.71 475.01 42.83 475.03C41.48 481.01 42.53 489.15 47.33 492.44C47.59 492.62 47.85 492.77 48.1 492.91C48.1 492.91 48.1 492.91 48.1 492.91C54.09 497.05 61.22 490.39 69.53 494.98C69.53 494.98 69.59 494.98 69.59 494.98C73.53 497.54 72.99 500.5 79.32 504.84C80.29 505.5 81.45 506.33 82.84 507.13C85.76 508.91 89.56 510.73 93.44 510.09C94.82 509.86 96.11 509.38 97.28 508.68C97.26 510.58 97.48 512.46 97.98 514.28C98.26 515.31 98.68 516.29 99.21 517.2C102.4 522.61 110.29 526.06 116.88 525.09C118.35 524.86 124.78 523.67 131.08 513.06C138.9 499.9 137.17 487.99 135.16 458.67C134.92 455.07 134.7 451.78 134.51 448.75C134.68 448.77 135.98 448.97 136.14 448.99C143.36 450.01 146.98 450.48 151.08 449.53C158.52 447.78 157.19 444.45 169.5 438.54C169.5 438.54 181.97 432.56 187.13 428.51C188.46 427.48 187.66 428 195.96 420.93C202.27 415.55 203.2 414.83 204.06 414.21C208.73 410.78 210.58 410.28 215.52 407.14C219.49 404.56 223.27 401.71 226.84 398.61C234.95 391.89 235.07 390.34 243.15 383.11C250.57 376.43 250.21 377.94 260.89 368.64C269.93 360.83 269.91 360.02 274.68 356.88C280.77 352.89 283.3 352.6 286.96 348.61C290.14 345.06 289.94 343.39 293.74 339.79C296.45 337.23 297.86 336.85 302.49 333.78C307.53 330.43 315.34 325.24 314.59 323.34C313.53 320.69 296.25 325.24 294.44 325.73C288.57 327.37 282.8 329.35 277.15 331.63C263.74 336.75 263.86 337.62 259.1 338.53C250.35 340.22 249.14 337.41 238.47 337.99C235.65 338.14 234.95 338.38 214.96 343.43C196.91 347.97 194.43 348.61 190.51 349.32C181.38 351.11 181.36 350.6 175.11 352.13C166.2 354.32 164.57 355.78 155.16 358.18C145.75 360.56 146.4 359.42 139.38 361.41C132 363.56 124.94 366.64 118.35 370.54C110.83 374.8 107.09 376.95 103.49 381.31C101.04 384.24 99.17 387.59 98 391.21C97.5 390.16 96.95 389.14 96.31 388.11C92.11 381.23 86.16 375.54 79.02 371.57C77.83 370.87 76.73 370.23 75.72 369.67C63.34 362.61 53.04 362.5 32.47 362.25C29.72 362.13 25.68 362.17 23.6 364.73C20.85 368.12 22.54 374.63 24.89 378.71C27.57 383.38 30.58 384 30.3 386.29Z" id="b6VwRipeBY"></path></defs><g><g><g><use xlink:href="#dLVqFDeMt" opacity="1" fill="#52802f" fill-opacity="1"></use><g><use xlink:href="#dLVqFDeMt" opacity="1" fill-opacity="0" stroke="#000000" stroke-width="1" stroke-opacity="0"></use></g></g><g><use xlink:href="#cRz6rmSGB" opacity="1" fill="#000000" fill-opacity="0"></use><g><use xlink:href="#cRz6rmSGB" opacity="1" fill-opacity="0" stroke="#000000" stroke-width="1" stroke-opacity="0"></use></g></g><g><use xlink:href="#ggAc6U8JZ" opacity="1" fill="#52802f" fill-opacity="1"></use><g><use xlink:href="#ggAc6U8JZ" opacity="1" fill-opacity="0" stroke="#000000" stroke-width="1" stroke-opacity="0"></use></g></g><g><use xlink:href="#kLKcO8dP" opacity="1" fill="#000000" fill-opacity="0"></use><g><use xlink:href="#kLKcO8dP" opacity="1" fill-opacity="0" stroke="#000000" stroke-width="1" stroke-opacity="0"></use></g></g><g><use xlink:href="#aSt7C8Q6I" opacity="1" fill="#52802f" fill-opacity="1"></use><g><use xlink:href="#aSt7C8Q6I" opacity="1" fill-opacity="0" stroke="#000000" stroke-width="1" stroke-opacity="0"></use></g></g><g><use xlink:href="#a9dzNdOmy" opacity="1" fill="#000000" fill-opacity="0"></use><g><use xlink:href="#a9dzNdOmy" opacity="1" fill-opacity="0" stroke="#000000" stroke-width="1" stroke-opacity="0"></use></g></g><g><use xlink:href="#b2b9WPWvhy" opacity="1" fill="#52802f" fill-opacity="1"></use><g><use xlink:href="#b2b9WPWvhy" opacity="1" fill-opacity="0" stroke="#000000" stroke-width="1" stroke-opacity="0"></use></g></g><g><use xlink:href="#a6pcbo0eV" opacity="1" fill="#000000" fill-opacity="0"></use><g><use xlink:href="#a6pcbo0eV" opacity="1" fill-opacity="0" stroke="#000000" stroke-width="1" stroke-opacity="0"></use></g></g><g><use xlink:href="#a31DEq9Ho4" opacity="1" fill="#52802f" fill-opacity="1"></use><g><use xlink:href="#a31DEq9Ho4" opacity="1" fill-opacity="0" stroke="#000000" stroke-width="1" stroke-opacity="0"></use></g></g><g><use xlink:href="#dbhmQLpL0" opacity="1" fill="#000000" fill-opacity="0"></use><g><use xlink:href="#dbhmQLpL0" opacity="1" fill-opacity="0" stroke="#000000" stroke-width="1" stroke-opacity="0"></use></g></g><g><use xlink:href="#adFjAl90" opacity="1" fill="#52802f" fill-opacity="1"></use><g><use xlink:href="#adFjAl90" opacity="1" fill-opacity="0" stroke="#000000" stroke-width="1" stroke-opacity="0"></use></g></g><g><use xlink:href="#b4zc9MsxjE" opacity="1" fill="#000000" fill-opacity="0"></use><g><use xlink:href="#b4zc9MsxjE" opacity="1" fill-opacity="0" stroke="#000000" stroke-width="1" stroke-opacity="0"></use></g></g><g><use xlink:href="#ai8ZPcWJr" opacity="1" fill="#52802f" fill-opacity="1"></use><g><use xlink:href="#ai8ZPcWJr" opacity="1" fill-opacity="0" stroke="#000000" stroke-width="1" stroke-opacity="0"></use></g></g><g><use xlink:href="#e11J31xwbm" opacity="1" fill="#000000" fill-opacity="0"></use><g><use xlink:href="#e11J31xwbm" opacity="1" fill-opacity="0" stroke="#000000" stroke-width="1" stroke-opacity="0"></use></g></g><g><use xlink:href="#c22NgcnXJj" opacity="1" fill="#52802f" fill-opacity="1"></use><g><use xlink:href="#c22NgcnXJj" opacity="1" fill-opacity="0" stroke="#000000" stroke-width="1" stroke-opacity="0"></use></g></g><g><use xlink:href="#b6VwRipeBY" opacity="1" fill="#000000" fill-opacity="0"></use><g><use xlink:href="#b6VwRipeBY" opacity="1" fill-opacity="0" stroke="#000000" stroke-width="1" stroke-opacity="0"></use></g></g></g></g></svg>